<svg xmlns="http://www.w3.org/2000/svg" viewBox="0 0 34 34"><defs><style>.cls-1{fill:#fff;}</style></defs><title>behance</title><g id="Layer_2" data-name="Layer 2"><g id="Layer_1-2" data-name="Layer 1"><path class="cls-1" d="M14.14,17.94H10.53v2.88h3.61C15.79,20.81,15.79,17.94,14.14,17.94Z"/><path class="cls-1" d="M13.51,13h-3v2.38h3C14.87,15.39,14.87,13,13.51,13Z"/><path class="cls-1" d="M21,16.44v1.09h3V16.44C24,15.29,21,15.29,21,16.44Z"/><path class="cls-1" d="M17,0A17,17,0,1,0,34,17,17,17,0,0,0,17,0Zm3,11h5v2H20Zm6.92,8.32H20.83v.83c0,1.44,3.25,1.44,3.25,0h2.83c0,4.61-7.68,4.48-8.88.84a3.06,3.06,0,0,1-2.83,2.68H6.95V10.61H15c3.35.08,2.88,5.83,1,5.92a2.08,2.08,0,0,1,1.83,1.55v-1c0-4.54,9.06-4.54,9.06,0Z"/></g></g></svg>