<svg id="Layer_3" data-name="Layer 3" xmlns="http://www.w3.org/2000/svg" viewBox="0 0 61 54.5">
  <defs>
    <style>
      .cls-1 {
        fill: none;
        stroke: #f85177;
        stroke-miterlimit: 10;
        stroke-width: 2px;
      }

      .cls-2 {
        fill: #f85177;
      }
    </style>
  </defs>
  <title>icon_software</title>
  <rect class="cls-1" x="1" y="1" width="59" height="40.5" rx="5.94" ry="5.94"/>
  <line class="cls-1" x1="1" y1="31" x2="60" y2="31"/>
  <circle class="cls-2" cx="30.5" cy="36.5" r="1.5"/>
  <line class="cls-1" x1="24" y1="49.5" x2="26.5" y2="41.5"/>
  <line class="cls-1" x1="34.5" y1="41.5" x2="37" y2="49.5"/>
  <rect class="cls-1" x="16" y="49.5" width="29" height="4"/>
  <circle class="cls-1" cx="30.5" cy="16.5" r="10"/>
  <path class="cls-1" d="M372.73,666v-8.62a1.38,1.38,0,0,0-1.38-1.38h-2.12" transform="translate(-344.5 -639.5)"/>
  <path class="cls-1" d="M375.88,666V652.9a1.48,1.48,0,0,0-1.38-1.57h-2.12" transform="translate(-344.5 -639.5)"/>
  <path class="cls-1" d="M378.31,665.25V657.6c0-1.11.62-2,1.38-2h.54" transform="translate(-344.5 -639.5)"/>
  <circle class="cls-1" cx="24.16" cy="16.5" r="1.5"/>
  <circle class="cls-1" cx="36.93" cy="16.1" r="1.5"/>
  <circle class="cls-1" cx="27.16" cy="11.83" r="1.5"/>
</svg>
