<svg xmlns="http://www.w3.org/2000/svg" viewBox="0 0 329.81 107.17">
  <defs>
    <style>
      .cls-1 {
        fill: #fff;
      }
    </style>
  </defs>
  <title>logo_fanshawe_digital</title>
  <g id="Layer_1" data-name="Layer 1">
    <path class="cls-1" d="M767.85,360l-3.72,10.77c-.62,1.81-1.28,3.61-1.86,5.43-.21.67-.5,1-1.25.94-1.35-.08-3,.42-4-.23s-1.08-2.36-1.52-3.63c-2.56-7.52-5.1-15-7.72-22.78,2,0,4,0,5.9.05.25,0,.56.59.68.95,1.69,5.45,3.36,10.9,5.08,16.54a5.87,5.87,0,0,0,.38-.78c1.75-5.26,3.52-10.52,5.22-15.8a1.27,1.27,0,0,1,1.52-1.07,12.84,12.84,0,0,0,2.63,0c1-.12,1.37.34,1.65,1.23,1.75,5.43,3.56,10.84,5.44,16.54.24-.67.41-1.11.55-1.56,1.53-5,3.07-10,4.56-15,.24-.81.57-1.18,1.47-1.13,1.62.08,3.25,0,5,0l-3.12,9.22c-1.84,5.44-3.7,10.88-5.51,16.33-.26.79-.61,1.19-1.51,1.11a18.78,18.78,0,0,0-3,0c-.78,0-1.09-.27-1.34-1-1.63-4.84-3.31-9.66-5-14.49C768.31,361.17,768.14,360.73,767.85,360Z" transform="translate(-518 -330.06)"/>
    <path class="cls-1" d="M526.76,385.39l12.68-12.67-3.83-3.81c-2.16,2.16-4.51,4.44-6.77,6.8a3.71,3.71,0,0,1-3.05,1.27c-2.5-.08-5,0-7.66-.21,4-4.58,8.41-8.62,12.69-13.09-4.24-4.31-8.46-8.58-12.82-13a8.31,8.31,0,0,1,1.12-.15c2.48,0,5-.06,7.43,0a2.91,2.91,0,0,1,1.79.72c6.73,6.67,13.42,13.39,20.14,20.08.65.65.67,1.13,0,1.79-3.85,3.83-7.67,7.71-11.54,11.53a2.75,2.75,0,0,1-1.64.84c-2.67.08-5.35,0-8,0A1.52,1.52,0,0,1,526.76,385.39Z" transform="translate(-518 -330.06)"/>
    <path class="cls-1" d="M573,388.86l-12.81-12.8-3.5,3.61c1.74,1.72,3.57,3.49,5.35,5.32,3.42,3.5,2.73,1.83,2.81,6.71,0,1.44,0,2.88,0,4.32,0,.38-.06.77-.08,1.05l-12.81-12.84-13.36,13.14a9.05,9.05,0,0,1-.21-1.32c0-2.36-.08-4.72,0-7.07a3.47,3.47,0,0,1,.89-2.09c6.57-6.66,13.2-13.25,19.8-19.88.75-.75,1.28-.83,2.07,0,3.81,3.88,7.68,7.7,11.51,11.56a2.08,2.08,0,0,1,.68,1.19c.06,3,0,5.91,0,8.86Z" transform="translate(-518 -330.06)"/>
    <path class="cls-1" d="M576.69,341.92c-4.39,4.39-8.64,8.64-12.93,12.91l3.94,3.66c2.15-2.16,4.49-4.44,6.75-6.8a3.74,3.74,0,0,1,3.06-1.27c2.12.08,4.24,0,6.36,0,.42,0,.83.07,1.25.1l.17.34-12.91,12.94,12.85,12.88a7,7,0,0,1-1.15.2c-2.44,0-4.88.07-7.31,0a3,3,0,0,1-1.89-.81c-6.7-6.64-13.36-13.33-20-20-.71-.7-.66-1.2,0-1.88,3.87-3.83,7.7-7.69,11.56-11.52a2.15,2.15,0,0,1,1.18-.73C570.59,341.89,573.57,341.92,576.69,341.92Z" transform="translate(-518 -330.06)"/>
    <path class="cls-1" d="M538.4,330.36l13,12.86,13.15-13.16a10.55,10.55,0,0,1,.14,1.14c0,2.48.06,5,0,7.44a2.85,2.85,0,0,1-.74,1.77c-6.64,6.71-13.34,13.36-20,20-.75.75-1.22.75-2,0-3.82-3.87-7.69-7.69-11.51-11.56a2.45,2.45,0,0,1-.75-1.42c-.08-2.72,0-5.44,0-8.16a5.44,5.44,0,0,1,.25-.94l13,13,3.5-3.59c-2.18-2.18-4.35-4.45-6.64-6.59a4.31,4.31,0,0,1-1.53-3.68c.13-2.07,0-4.16.07-6.23C538.33,330.92,538.38,330.58,538.4,330.36Z" transform="translate(-518 -330.06)"/>
    <path class="cls-1" d="M661.78,366.16V350.53h5.67v26.38c-1.51,0-3,.06-4.45,0-.38,0-.79-.47-1.06-.83-3.65-4.75-7.27-9.53-10.91-14.3-.3-.39-.62-.78-1.13-1.41v16.5h-5.78V350.45c1.69,0,3.35,0,5,0,.34,0,.71.46,1,.78q5.32,7,10.61,13.92c.26.35.54.69.81,1Z" transform="translate(-518 -330.06)"/>
    <path class="cls-1" d="M713.56,376.81V366.38H703v10.46h-5.8V350.55h5.72v10.24h10.61V350.52h5.9v26.29Z" transform="translate(-518 -330.06)"/>
    <path class="cls-1" d="M797.07,355.62v5.24h12.3v5.29H797.11v5.47h14.13v5.21H791.31V350.51h19.76v5.11Z" transform="translate(-518 -330.06)"/>
    <path class="cls-1" d="M613.42,376.92l4.71-11.09c2-4.81,4.11-9.61,6.11-14.44a1.52,1.52,0,0,1,1.77-1.13c1.38.12,3.07-.36,4.08.28s1.19,2.34,1.73,3.58L641,375.7c.15.36.26.73.43,1.22-1.95,0-3.74,0-5.53,0-.3,0-.7-.44-.84-.77-.64-1.42-1.22-2.87-1.77-4.32a1.11,1.11,0,0,0-1.22-.85q-4.68.06-9.36,0a1.08,1.08,0,0,0-1.21.84c-.55,1.49-1.17,3-1.83,4.42a1.33,1.33,0,0,1-.9.69C617.06,377,615.34,376.92,613.42,376.92ZM624,365.72h6.84l-3.43-8.34C626.18,360.31,625.11,362.92,624,365.72Z" transform="translate(-518 -330.06)"/>
    <path class="cls-1" d="M750.51,376.91c-2,0-3.77,0-5.59,0-.27,0-.63-.41-.77-.72-.63-1.42-1.23-2.85-1.77-4.31a1.15,1.15,0,0,0-1.28-.91q-4.62.07-9.23,0a1.21,1.21,0,0,0-1.36,1c-.5,1.39-1.13,2.73-1.64,4.11a1.17,1.17,0,0,1-1.3.92c-1.62-.06-3.24,0-5.08,0,1.06-2.49,2-4.79,3-7.09,2.64-6.21,5.3-12.4,7.91-18.62a1.25,1.25,0,0,1,1.39-.95,33.66,33.66,0,0,0,3.48,0,1.19,1.19,0,0,1,1.35.85q5.25,12.45,10.57,24.89C750.3,376.25,750.37,376.52,750.51,376.91ZM733,365.73h6.84l-3.43-8.36Z" transform="translate(-518 -330.06)"/>
    <path class="cls-1" d="M691.78,353.42l-2.94,4.25c-1.73-.74-3.33-1.57-5-2.1a8.07,8.07,0,0,0-3.18-.16,2.2,2.2,0,0,0-2.14,1.92,2.09,2.09,0,0,0,1.57,2.39c1.42.52,2.88.91,4.32,1.39s2.74.87,4,1.46a6.46,6.46,0,0,1,4.09,6.33c0,3.14-1.18,5.62-4,7.09-3.36,1.72-6.87,1.53-10.39.61a15.88,15.88,0,0,1-6.52-3.58l3.41-4.11c.83.55,1.61,1.11,2.42,1.59a9.86,9.86,0,0,0,6.88,1.43,2.53,2.53,0,0,0,2.37-2c.16-1.21-.32-2-1.83-2.57-1.73-.63-3.51-1.09-5.26-1.63-.53-.16-1.07-.32-1.59-.51-4-1.45-5.43-3.58-5.3-7.66a7.41,7.41,0,0,1,5.89-7C683.36,349.31,687.71,350.44,691.78,353.42Z" transform="translate(-518 -330.06)"/>
    <path class="cls-1" d="M612.86,366.68H600.4v10.16h-5.83v-26.3h20v5.24H600.43v5.55h12.43Z" transform="translate(-518 -330.06)"/>
    <path class="cls-1" d="M674.28,433.31h-3.65V420.46h3.54l.16,1a20.4,20.4,0,0,1,3.8-1.26,3.79,3.79,0,0,1,3.56,1.87,5.42,5.42,0,0,1,5.46-1.75,3.67,3.67,0,0,1,3,3.68c.12,3.07,0,6.14,0,9.27h-3.69v-4.73c0-1,0-1.93,0-2.88a2,2,0,0,0-2.11-2.12,2,2,0,0,0-2.08,2.17c0,2.47,0,4.95,0,7.53h-3.78v-4.95c0-.84,0-1.68,0-2.52-.07-1.41-.79-2.19-2-2.23a2,2,0,0,0-2.19,2.18c-.08,2,0,4.08,0,6.11Z" transform="translate(-518 -330.06)"/>
    <path class="cls-1" d="M718.11,407.24V390.31a73.69,73.69,0,0,1,8.87.5,7.91,7.91,0,0,1,6.57,8.59,8.07,8.07,0,0,1-7.52,7.8C723.42,407.41,720.78,407.24,718.11,407.24Zm3.8-13.25v9.88a35.19,35.19,0,0,0,3.57,0,4.62,4.62,0,0,0,4.16-4.86,4.68,4.68,0,0,0-4-5A30,30,0,0,0,721.91,394Z" transform="translate(-518 -330.06)"/>
    <path class="cls-1" d="M724.78,421.75l.12-1.26h3.53c0,.05.13.12.13.18,0,3.56.09,7.12-.08,10.67-.18,3.83-2.21,5.66-6.06,5.86a12.19,12.19,0,0,1-6.79-1.35l1.17-2.58a28.93,28.93,0,0,0,3.73,1c2.89.37,4.4-1,4.25-3.82a5.2,5.2,0,0,1-4.88,1.81,5.47,5.47,0,0,1-3.51-1.87,6.67,6.67,0,0,1,0-8.3C718.43,419.73,721.39,419.61,724.78,421.75Zm-6.09,4.56a3,3,0,0,0,3.16,2.92,3,3,0,1,0-3.16-2.92Z" transform="translate(-518 -330.06)"/>
    <path class="cls-1" d="M743.76,409.77c.41-.89.79-1.72,1.07-2.31a33.38,33.38,0,0,0,5.13.71c2.14,0,3.06-1.28,2.93-3.75a5.19,5.19,0,0,1-4.54,1.85A5.41,5.41,0,0,1,744.2,404a6.71,6.71,0,0,1,.56-8.2c2.09-2.06,5.14-2.11,8,0l.18-1.23h3.52c0,.06.13.12.13.18,0,3.79.08,7.59-.16,11.37-.19,3-1.94,4.55-4.9,5A11.46,11.46,0,0,1,743.76,409.77Zm6.08-6.61a2.94,2.94,0,1,0,.09-5.86,2.85,2.85,0,0,0-3.11,2.89A2.82,2.82,0,0,0,749.84,403.16Z" transform="translate(-518 -330.06)"/>
    <path class="cls-1" d="M847.81,389.8v17.41h-3.59c-.06-.39-.12-.81-.19-1.23-3.22,2.18-6,2.06-8.12-.33a7.83,7.83,0,0,1,0-9.56c2-2.33,5-2.49,8.19-.34V389.8ZM838,400.89a3.26,3.26,0,0,0,3.11,3.54c1.78,0,3.07-1.55,3.05-3.6a3.23,3.23,0,0,0-3.06-3.47C839.34,397.35,838,398.83,838,400.89Z" transform="translate(-518 -330.06)"/>
    <path class="cls-1" d="M737.94,433.21c1-2.43,2.06-4.85,3.08-7.26,1.2-2.83,2.44-5.64,3.59-8.49a1.47,1.47,0,0,1,1.65-1.12c2.29.06,2.3,0,3.18,2.06l5.84,13.76c.16.36.28.73.44,1.14l-.55.06c-3.24.08-3.26.09-4.47-2.89a1.27,1.27,0,0,0-1.42-.93c-1.67.06-3.36.06-5,0a1.15,1.15,0,0,0-1.37,1,2.18,2.18,0,0,1-.09.23C741.6,433.69,741.42,433.79,737.94,433.21Zm11-7c-.75-1.82-1.41-3.43-2.17-5.26-.76,1.89-1.42,3.52-2.13,5.26Z" transform="translate(-518 -330.06)"/>
    <path class="cls-1" d="M595.49,416.58c2.78,0,5.5-.16,8.19,0a5.41,5.41,0,0,1,5.07,5.54,5.53,5.53,0,0,1-4.58,5.87,48.06,48.06,0,0,1-5,.42v4.86h-3.67Zm3.72,8.38h2.53a5.77,5.77,0,0,0,.72,0,2.49,2.49,0,0,0,2.45-2.32,2.19,2.19,0,0,0-1.81-2.56,33.09,33.09,0,0,0-3.89-.21Z" transform="translate(-518 -330.06)"/>
    <path class="cls-1" d="M607.12,392.39l-1.85,2.68c-1.28-.5-2.45-1-3.65-1.39a1.87,1.87,0,0,0-1.29-.06c-.62.32-1.4.74-1.62,1.31-.33.85.49,1.35,1.24,1.6,1.35.46,2.76.8,4.11,1.28,2.65,1,3.78,2.62,3.51,5a5,5,0,0,1-4.57,4.62,10.48,10.48,0,0,1-8.76-2.6l2-2.39c1.54.61,2.93,1.28,4.39,1.7a3.83,3.83,0,0,0,2.21-.18,1.69,1.69,0,0,0,.94-1.19,1.71,1.71,0,0,0-.75-1.31,18,18,0,0,0-2.69-1c-.76-.25-1.54-.43-2.28-.72-2.27-.89-3.14-2.16-3.13-4.43a4.62,4.62,0,0,1,3.18-4.61C601.33,389.65,604.28,390.35,607.12,392.39Z" transform="translate(-518 -330.06)"/>
    <path class="cls-1" d="M627.8,407.23h-3.69V389.79h3.63v5.73a17.23,17.23,0,0,1,3.84-1.26,3.67,3.67,0,0,1,4.2,3.64c.18,3.07,0,6.15,0,9.32H632.2v-5.6c0-.6,0-1.2,0-1.8-.11-1.45-.87-2.24-2.13-2.25a2.09,2.09,0,0,0-2.23,2.28c-.05,2,0,4,0,6Z" transform="translate(-518 -330.06)"/>
    <path class="cls-1" d="M650.89,433.63a6.68,6.68,0,0,1-6.93-6.71,7,7,0,1,1,6.93,6.71Zm3.39-6.67a3.39,3.39,0,0,0-3.39-3.56,3.26,3.26,0,0,0-3.25,3.4,3.42,3.42,0,0,0,3.32,3.64A3.31,3.31,0,0,0,654.28,427Z" transform="translate(-518 -330.06)"/>
    <path class="cls-1" d="M661.37,394.2a6.72,6.72,0,0,1,7,6.68,6.86,6.86,0,0,1-7.07,6.76,6.72,6.72,0,1,1,.09-13.44ZM658,400.75a3.36,3.36,0,0,0,3.24,3.68,3.25,3.25,0,0,0,3.35-3.42,3.43,3.43,0,0,0-3.32-3.63A3.25,3.25,0,0,0,658,400.75Z" transform="translate(-518 -330.06)"/>
    <path class="cls-1" d="M698.68,400.91a7,7,0,1,1-6.91-6.71A6.62,6.62,0,0,1,698.68,400.91Zm-7-3.52a3.33,3.33,0,0,0-3.32,3.49,3.47,3.47,0,0,0,3.31,3.55A3.31,3.31,0,0,0,695,401,3.44,3.44,0,0,0,691.68,397.39Z" transform="translate(-518 -330.06)"/>
    <path class="cls-1" d="M645.46,394.2a6.63,6.63,0,0,1,6.9,6.71,7,7,0,1,1-6.9-6.71Zm3.26,6.8a3.43,3.43,0,0,0-3.35-3.61,3.33,3.33,0,0,0-3.33,3.48,3.46,3.46,0,0,0,3.3,3.56A3.3,3.3,0,0,0,648.72,401Z" transform="translate(-518 -330.06)"/>
    <path class="cls-1" d="M813.26,399.84c-.37-2.47-1.91-2.88-6.28-1.75l-1-2.77c2.91-1.13,5.73-1.64,8.59-.21a3.68,3.68,0,0,1,2.06,3.19c.11,2.94,0,5.89,0,8.84-2.11.53-3.28.28-3.64-.85a5.68,5.68,0,0,1-4.58,1.21A3.77,3.77,0,0,1,805,404c-.17-2.18.77-3.77,2.86-4.22a21.62,21.62,0,0,1,4.27-.18A7,7,0,0,1,813.26,399.84Zm-2.33,1.81a9.46,9.46,0,0,0-1.19.26c-.81.26-1.41.87-1.12,1.68A2.2,2.2,0,0,0,810,404.9a4,4,0,0,0,2.44-.57,2.59,2.59,0,0,0,.76-1.83c0-.23-.88-.54-1.39-.76A3.67,3.67,0,0,0,810.93,401.65Z" transform="translate(-518 -330.06)"/>
    <path class="cls-1" d="M614.12,428.2c.68,2.73,2.8,3.08,6.2,1.21.64.56,1.29,1.14,1.93,1.72-1.39,2.11-4.24,3-7.16,2.25a6.28,6.28,0,0,1-4.76-5.52c-.47-5.11,3.46-8.68,8.19-7.45,2.81.73,5.13,4.46,4.43,7.22-.06.25-.62.54-1,.54-2.15.05-4.31,0-6.46,0Zm0-2.41h5.14c-.18-1.66-1.07-2.57-2.46-2.61S614.32,424.09,614.07,425.79Z" transform="translate(-518 -330.06)"/>
    <path class="cls-1" d="M823.58,394.52l.11,1.39c.3-.24.53-.41.74-.6a4.46,4.46,0,0,1,4.6-.85,3.54,3.54,0,0,1,2.61,3.39c.12,3.1,0,6.21,0,9.39H828c0-2.47,0-4.86,0-7.25,0-1.69-.93-2.55-2.43-2.41a2.11,2.11,0,0,0-1.93,2.33c0,1.92,0,3.84,0,5.76v1.54H820V394.52Z" transform="translate(-518 -330.06)"/>
    <path class="cls-1" d="M704.36,433.29h-3.7v-12.8h3.64l.09,1.07a15.83,15.83,0,0,1,3.22-1.32,3.89,3.89,0,0,1,4.72,3.74c.17,3.07,0,6.14,0,9.3h-3.65v-7.2a2.28,2.28,0,0,0-1.18-2.31,2.16,2.16,0,0,0-3.17,2.05c0,2,0,4.07,0,6.11Z" transform="translate(-518 -330.06)"/>
    <path class="cls-1" d="M778.22,397.88c-.23-.74-.51-1.61-.81-2.56a10.49,10.49,0,0,1,8-.5,4.2,4.2,0,0,1,2.72,4c.11,2.75,0,5.51,0,8.25-2.09.57-3.38.29-3.75-.85a5.46,5.46,0,0,1-4.83,1.2,3.72,3.72,0,0,1-3.26-3.59,3.55,3.55,0,0,1,2.79-4.05,39.35,39.35,0,0,1,5.37-.31c.15-1-.43-1.87-1.81-1.93A40,40,0,0,0,778.22,397.88Zm4.08,3.77c-.29.06-.72.11-1.13.23a1.53,1.53,0,0,0-1.26,1.65,1.4,1.4,0,0,0,1.49,1.41,4.72,4.72,0,0,0,2.44-.63,2.67,2.67,0,0,0,.74-1.84c0-.2-.83-.51-1.3-.71A4,4,0,0,0,782.3,401.65Z" transform="translate(-518 -330.06)"/>
    <path class="cls-1" d="M776.87,431.64c.56-.85,1-1.62,1.53-2.34,1,.43,2,.87,2.92,1.22a2.31,2.31,0,0,0,1.28.17,6.73,6.73,0,0,0,1.42-.81c-.36-.37-.66-.88-1.1-1.08-.9-.41-1.9-.6-2.82-1a3.48,3.48,0,0,1-2.53-3.76,3.77,3.77,0,0,1,2.88-3.56,8,8,0,0,1,6.66,1.23c-.48.87-.91,1.67-1.33,2.46-1-.36-1.92-.71-2.87-1a2.18,2.18,0,0,0-1.16,0c-.3.09-.74.4-.74.63a1.15,1.15,0,0,0,.53.91c1,.47,2.08.8,3.11,1.22,2.41,1,3.26,2.67,2.53,4.93a3.51,3.51,0,0,1-2.39,2.34C781.89,434.13,779.32,433.38,776.87,431.64Z" transform="translate(-518 -330.06)"/>
    <path class="cls-1" d="M708.43,394.47v3.07h-2.8v9.71H701.9v-9.59l-1.47-.12V394.6l1.37-.14c.07-.67.11-1.3.21-1.92a3.24,3.24,0,0,1,3.06-2.87q.3,0,.6,0c3.25.08,3-.18,2.73,3.27-2.37-.34-2.73-.16-2.79,1.56Z" transform="translate(-518 -330.06)"/>
    <path class="cls-1" d="M636.29,433.26v-9.6l-1.41-.17v-2.87l1.26-.18c-.08-3.95,1.79-5.67,6.78-4.45v2.9c-2.7-.23-3-.06-2.82,1.69h2.75v2.95H640.1v9.73Z" transform="translate(-518 -330.06)"/>
    <path class="cls-1" d="M621.63,396.43l-1.83,2a23.13,23.13,0,0,0-3.87-.9c-.56,0-1.31.58-1.74,1.09a3.8,3.8,0,0,0,.16,4.85c1.26,1.35,2.91,1.26,5.28-.31l2,2c-.93,1.86-4.13,3-7,2.24a6.77,6.77,0,0,1-.54-12.8A6.76,6.76,0,0,1,621.63,396.43Z" transform="translate(-518 -330.06)"/>
    <path class="cls-1" d="M775.18,430c0,.19.05.39.06.58.07,2.43-.13,2.7-2.15,3-2.42.3-4.09-.56-4.36-2.48a40.07,40.07,0,0,1-.21-4.66c0-.91,0-1.81,0-2.76l-1.39-.14v-3l1.36-.16v-3.09h3.79v3.14h2.88v3.16H772.3c0,2,0,3.93.05,5.83,0,.32.64.79,1,.86A6.48,6.48,0,0,0,775.18,430Z" transform="translate(-518 -330.06)"/>
    <path class="cls-1" d="M771.33,394.41h3v3.17h-2.94c0,2,0,3.79,0,5.61a1,1,0,0,0,1.29,1.08c.47,0,.94-.16,1.63-.29,0,.84,0,1.69,0,2.53a1,1,0,0,1-.5.59c-3.06,1.67-6.07-.07-6.1-3.51,0-2,0-3.91,0-5.92l-1.53-.14v-3l1.48-.14v-3.16h3.66Z" transform="translate(-518 -330.06)"/>
    <path class="cls-1" d="M674.69,389.81v17.44h-3.57V389.81Z" transform="translate(-518 -330.06)"/>
    <path class="cls-1" d="M664.14,433.3h-3.55V420.5h3.62l.15,1.94a4.14,4.14,0,0,1,3.92-2.25v3.7a2.35,2.35,0,0,1-.45.15c-2.48.45-3.51,1.64-3.55,4.15,0,1.6,0,3.2,0,4.8A1.18,1.18,0,0,1,664.14,433.3Z" transform="translate(-518 -330.06)"/>
    <path class="cls-1" d="M758,420.46h3.56l.13,1.81a11.54,11.54,0,0,1,1.68-1.52,11.73,11.73,0,0,1,2.24-.75v3.93l-.87.19a3.32,3.32,0,0,0-3,3.24c-.16,1.51-.09,3-.12,4.55,0,.43,0,.87,0,1.45H758Z" transform="translate(-518 -330.06)"/>
    <path class="cls-1" d="M795.06,389.79v17.46h-3.51V389.79Z" transform="translate(-518 -330.06)"/>
    <path class="cls-1" d="M629.32,433.3H625.7V420.5h3.57l.09,2c1-1.41,2.12-2.47,3.94-2.31v3.72c-3.44.51-3.94,2.29-4,5.06C629.3,430.39,629.32,431.78,629.32,433.3Z" transform="translate(-518 -330.06)"/>
    <path class="cls-1" d="M736.62,394.5h3.57v12.73h-3.57Z" transform="translate(-518 -330.06)"/>
    <path class="cls-1" d="M760.09,394.49h3.53v12.73h-3.53Z" transform="translate(-518 -330.06)"/>
    <path class="cls-1" d="M693.65,420.44h3.5v12.84h-3.5Z" transform="translate(-518 -330.06)"/>
    <path class="cls-1" d="M760,389.79h3.74V393H760Z" transform="translate(-518 -330.06)"/>
    <path class="cls-1" d="M693.46,419v-3.12h3.78V419Z" transform="translate(-518 -330.06)"/>
    <path class="cls-1" d="M740.33,389.8V393h-3.74V389.8Z" transform="translate(-518 -330.06)"/>
  </g>
</svg>
