<svg id="Layer_1" data-name="Layer 1" xmlns="http://www.w3.org/2000/svg" viewBox="0 0 409.2 292.56">
  <defs>
    <style>
      .cls-1 {
        fill: #fff;
      }
    </style>
  </defs>
  <title>logo_oce</title>
  <path class="cls-1" d="M343.19,558.24c1.77.24,3.55.46,5.32.71a76.32,76.32,0,0,1,21.68,7C383.66,572.33,395.57,581,406.6,591A203.72,203.72,0,0,1,448,641.87a148.89,148.89,0,0,1,16.25,41,89.05,89.05,0,0,1,2.24,24.61c-.59,10.24-3.2,19.87-9.71,28.06a37,37,0,0,1-24.63,13.89c-9.84,1.42-19.29-.34-28.59-3.51-7-2.4-13.49-6-19.82-9.8-.78-.48-1.46-1.07-1.23-2.11a1.93,1.93,0,0,1,2.08-1.46,44.35,44.35,0,0,0,18.87-5.24,1.73,1.73,0,0,1,1.32,0,59.62,59.62,0,0,0,14.89,4.36,30.87,30.87,0,0,0,13.65-.7c6.5-2,10.69-6.5,13.06-12.75a43.23,43.23,0,0,0,2.37-18.5c-1.19-17.52-7.53-33.36-15.9-48.51a179.8,179.8,0,0,0-28.09-37.39,166.46,166.46,0,0,0-30.43-25.35c-7.37-4.69-15.07-8.71-23.57-11a32.82,32.82,0,0,0-13.37-1.15c-5.69.81-9.65,3.92-12.22,9a36.63,36.63,0,0,0-3.58,13.81c-1,11.42,1,22.49,4.09,33.44.08.3.21.59.34,1a7.23,7.23,0,0,0,.9-.31,74.06,74.06,0,0,1,23.48-6.72c12.83-1.43,25.08.39,36.41,6.88,8.82,5.05,15.27,12.4,20.21,21.16A56.45,56.45,0,0,1,414,675c1.47,11.07,0,21.54-6.89,30.72a31.48,31.48,0,0,1-21.74,12.72c-11.2,1.52-21.35-1.59-30.79-7.43-8-4.93-14.15-11.66-19.55-19.21a183.13,183.13,0,0,1-17.14-29.34c-.13-.29-.3-.56-.5-.93a8,8,0,0,0-.77.6c-7.12,7.3-12.28,15.71-14.49,25.77-4.31,19.64,7.52,38.41,27.22,43.16,2.16.52,4.38.87,6.58,1.2,6.56,1,10.08,8.37,6.39,13.64a9,9,0,0,1-8.74,4,56.84,56.84,0,0,1-25.05-8.54c-13.21-8.51-21.36-20.49-24.29-36-.31-1.64-.37-3.33-.57-5-.06-.51-.18-1-.28-1.51V693.6a9.26,9.26,0,0,0,.27-1.27,58.09,58.09,0,0,1,4.44-18.9,75.36,75.36,0,0,1,21.4-28.91,1.63,1.63,0,0,0,.57-2c-1.05-3.47-2.12-6.94-3-10.46-3-12.13-4.45-24.4-3-36.9a50.26,50.26,0,0,1,5.76-19c5.22-9.39,13-15.24,23.69-17.15,1.6-.29,3.22-.5,4.82-.74Zm15.53,85.64c-.76,0-1.52,0-2.28,0s-1.51.15-2.27.19a55.43,55.43,0,0,0-20.95,5.84c-.93.46-1.05.91-.63,1.84a156.88,156.88,0,0,0,19.86,33.52c6.55,8.29,14.6,14.32,25.42,15.7,7.11.9,14.23-2.15,17.27-9.77a25.78,25.78,0,0,0,1.17-14.36A42.51,42.51,0,0,0,384,653.39C377,646.55,368.24,644.09,358.72,643.88Z" transform="translate(-170.4 -558.24)"/>
  <g>
    <path class="cls-1" d="M579.6,777.2c-1.19,0-2.39-.13-3.57-.05a2.07,2.07,0,0,0-2,2.11c-.07,1.11-.07,2.23-.13,3.35,0,.7.32.88,1,.87,1.27,0,2.55,0,3.92,0v3.58h-3.15c-1.72,0-1.73,0-1.73,1.68v20h-4v-1.38c0-6.32,0-12.63,0-18.95,0-1.08-.32-1.42-1.35-1.33s-1.83,0-2.84,0v-3.56h4.17c0-1.11,0-2,0-3-.27-6.17,3.94-7.42,8.28-7a11.38,11.38,0,0,1,1.51.35Z" transform="translate(-170.4 -558.24)"/>
    <path class="cls-1" d="M203.89,791.32a22.21,22.21,0,0,1-2,9.18c-3.2,6.74-9.59,9.64-16.78,9-7.92-.76-13.27-6.66-14.41-14.66a22.19,22.19,0,0,1,1.46-12.21c3-6.92,9.44-10.18,16.78-9.55s13.13,5.83,14.55,14.12C203.69,788.53,203.75,789.93,203.89,791.32Zm-4.57-1.05a41.87,41.87,0,0,0-1.11-5.28,11.63,11.63,0,0,0-22-.61,18.78,18.78,0,0,0,.14,14.15c3.61,8.9,14.56,9.05,19.28,3.59C198.32,799,199.17,795.31,199.32,790.27Z" transform="translate(-170.4 -558.24)"/>
    <path class="cls-1" d="M209.46,815.16h23.93v3.74H214.11v11.21h1.38c5.12,0,10.23,0,15.35,0,1.13,0,1.49.35,1.38,1.43-.07.79,0,1.59,0,2.51H214.09v12.13h19.54V850c-.43,0-.86.07-1.29.07-7.19,0-14.39,0-21.58,0-1,0-1.4-.2-1.39-1.31,0-10.8,0-21.59,0-32.38C209.39,816,209.43,815.67,209.46,815.16Z" transform="translate(-170.4 -558.24)"/>
    <path class="cls-1" d="M380.86,784.28c-1.43,0-2.66,0-3.89,0a1,1,0,0,1-.77-.57c-1.32-4.62-4.63-6.59-9.17-6.83-4.83-.25-8.58,1.7-10.65,6.08a18.8,18.8,0,0,0,.12,16.9c3.39,6.88,13.23,8.07,17.83,2.34a10.79,10.79,0,0,0,2.23-5.6c.09-.73.36-1,1.05-.92,1.15,0,2.3,0,3.61,0-.54,5-2.26,9.09-6.55,11.75-5.64,3.51-14.49,2.69-19.38-1.77-2.94-2.67-4.32-6.17-4.94-10A23.19,23.19,0,0,1,351.92,782c3.08-6.81,9.55-9.65,16.35-9,3.84.38,7.23,1.68,9.8,4.68A11.83,11.83,0,0,1,380.86,784.28Z" transform="translate(-170.4 -558.24)"/>
    <path class="cls-1" d="M256.77,791.26h-3.83A7.19,7.19,0,0,1,257.4,784a16.48,16.48,0,0,1,11.37-.41c2.74.83,4.09,2.89,4.11,5.8,0,4.28,0,8.56,0,12.84,0,.44,0,.88.05,1.32.22,2.18.33,2.26,2.59,2.09,0,.84,0,1.68,0,2.5a1,1,0,0,1-.47.71c-1.51.53-3.15.84-4.48-.17-.82-.62-1.23-1.81-1.87-2.83.17-.1,0-.06-.06,0-3.52,3.49-7.76,4-12.32,2.81a6,6,0,0,1-4.47-5.63c-.22-3.06.58-5.76,3.57-7.08a34.16,34.16,0,0,1,6.19-1.72c1.52-.35,3.09-.45,4.6-.78,1.77-.38,2.58-1.23,2.66-2.5.13-1.93-.59-3.4-2.22-4a9,9,0,0,0-7.75.48c-.83.48-1.29,1.63-1.84,2.51A4.15,4.15,0,0,0,256.77,791.26Zm12.05,4.84c-2.19.36-4.24.63-6.25,1a21,21,0,0,0-4.45,1.28,3.66,3.66,0,0,0-1.94,4.14,3.35,3.35,0,0,0,3.17,2.95,14.92,14.92,0,0,0,4.95-.3,5.62,5.62,0,0,0,4.48-4.78A31.5,31.5,0,0,0,268.82,796.1Z" transform="translate(-170.4 -558.24)"/>
    <path class="cls-1" d="M363.65,838.58H344.78c-.85,3,1.32,6.73,4.47,7.92,4.38,1.66,7.72.18,9.94-4.39H363a9.26,9.26,0,0,1-8.05,8.2,19.17,19.17,0,0,1-5.71-.07,9.67,9.67,0,0,1-7.46-5.79,16.39,16.39,0,0,1-.72-12.36c1.42-4.16,5.43-8.57,12.67-7.84,4.45.45,8.37,4.28,9.32,9.48C363.33,835.28,363.44,836.86,363.65,838.58Zm-19.09-3.65h14.55a7.19,7.19,0,0,0-3.42-6.06,7,7,0,0,0-7.73,0A7.23,7.23,0,0,0,344.56,834.93Z" transform="translate(-170.4 -558.24)"/>
    <path class="cls-1" d="M409,797.36h-19a7.15,7.15,0,0,0,5.19,8c4.34,1.26,7.41-.26,9.26-4.59h3.9a9.58,9.58,0,0,1-4.3,6.8,13,13,0,0,1-14.58-1.16,12.42,12.42,0,0,1-3.7-7.61,15.19,15.19,0,0,1,1.24-9.57c2.37-4.71,7-7,12.47-6.26,4.25.57,7.87,4.32,8.84,9.28C408.71,793.89,408.82,795.52,409,797.36Zm-4.53-3.68c-.25-2.84-1.37-5-3.77-6.27a7,7,0,0,0-7.78.41,7.27,7.27,0,0,0-3,5.86Z" transform="translate(-170.4 -558.24)"/>
    <path class="cls-1" d="M495.55,797.33h-19c-.76,3.35,1.64,7,5.16,8.07,4.38,1.29,7.66-.31,9.28-4.57h3.88a9.43,9.43,0,0,1-3.38,6.16c-4.32,3.56-12.38,3-16.13-1.2-4.39-4.85-4.42-14.33,0-19.15,3.23-3.54,7.32-4.49,11.8-3.34,4.3,1.11,6.52,4.4,7.59,8.49A47.47,47.47,0,0,1,495.55,797.33ZM491,793.66a7.28,7.28,0,0,0-6.49-7.15,7.2,7.2,0,0,0-7.93,5.92c-.21,1,0,1.34,1.07,1.33,4.08,0,8.15,0,12.23,0C490.22,793.74,490.57,793.69,491,793.66Z" transform="translate(-170.4 -558.24)"/>
    <path class="cls-1" d="M445.1,838.6h-6.23c-3.92,0-7.84,0-11.75,0-.88,0-1.21.21-1.16,1.14a7.91,7.91,0,0,0,11.73,6.42c1.42-.8,2-1.65,2.88-4h3.92a9.3,9.3,0,0,1-4,6.57A11.92,11.92,0,0,1,422,840.51c-.73-4.44-.27-8.66,2.69-12.23,3.15-3.82,7.36-4.86,12-3.71,4.43,1.1,6.66,4.47,7.71,8.66A46.53,46.53,0,0,1,445.1,838.6Zm-19.05-3.75a1.48,1.48,0,0,0,.4.14l13.41,0c.83,0,.71-.5.63-1.06a7.26,7.26,0,0,0-7.85-6.17C429.1,828,426.29,830.93,426.05,834.85Z" transform="translate(-170.4 -558.24)"/>
    <path class="cls-1" d="M314.05,838.62h-19a7.2,7.2,0,0,0,5.28,8.1c3.38.9,7.87.26,9.13-4.62h3.93a9.36,9.36,0,0,1-4.79,7.09,11.86,11.86,0,0,1-17.7-8.55,16.41,16.41,0,0,1,.7-9.07c1.59-4,5.56-8,12.55-7.31,4.29.45,8.09,4,9.16,9.06C313.71,835,313.81,836.7,314.05,838.62Zm-4.54-3.69a7.18,7.18,0,0,0-3.95-6.35,7,7,0,0,0-7.59.52,7.2,7.2,0,0,0-3,5.83Z" transform="translate(-170.4 -558.24)"/>
    <path class="cls-1" d="M331.39,796.82c-.12,3.28-1,7-4.16,9.67-4,3.31-8.55,3.62-13.2,1.83s-6.5-5.53-7-10.18a16.26,16.26,0,0,1,1-8.23c2.11-5.1,6.71-7.11,11.59-7C325.92,783,331.36,787.42,331.39,796.82Zm-20.3-1.05c.16,1.34.21,2.38.42,3.39a7.89,7.89,0,0,0,7.44,6.62c3.48.12,6.51-2.21,7.6-5.95a12.89,12.89,0,0,0-.15-7.89,7.52,7.52,0,0,0-7.35-5.44,7.45,7.45,0,0,0-7.19,5.46A28.9,28.9,0,0,0,311.09,795.77Z" transform="translate(-170.4 -558.24)"/>
    <path class="cls-1" d="M562.51,796.18c0,3.63-.73,7-3.39,9.67-3.67,3.68-8.17,4.18-12.9,2.83-4.52-1.3-6.94-4.67-7.81-9.16a16,16,0,0,1,1.11-10.19,10.5,10.5,0,0,1,9.34-6.31,16.06,16.06,0,0,1,6,.63c4.95,1.69,7.1,5.64,7.65,10.62A17.37,17.37,0,0,1,562.51,796.18Zm-3.89,0a36.13,36.13,0,0,0-1.56-5.41,6.92,6.92,0,0,0-6.77-4.25,7.07,7.07,0,0,0-6.69,4.24,12.05,12.05,0,0,0-.07,10.64,7.1,7.1,0,0,0,6.75,4.35,6.92,6.92,0,0,0,6.79-4.26A39.2,39.2,0,0,0,558.62,796.17Z" transform="translate(-170.4 -558.24)"/>
    <path class="cls-1" d="M498.83,800.9h3.86a4.71,4.71,0,0,0,3.4,4.29,10.55,10.55,0,0,0,7.94-.34,3,3,0,0,0,1.78-2.9,2.68,2.68,0,0,0-1.74-2.76c-2.28-.81-4.64-1.41-7-2.12a36.86,36.86,0,0,1-4.41-1.49,5.55,5.55,0,0,1-3.49-5,6.35,6.35,0,0,1,3.14-6.06,11.19,11.19,0,0,1,6.54-1.6,19.75,19.75,0,0,1,5.4.89,6.65,6.65,0,0,1,4.52,7c-1.09,0-2.2,0-3.31,0a.87.87,0,0,1-.63-.52c-.5-2.25-2.14-3.2-4.18-3.57a8.65,8.65,0,0,0-5.4.55c-2.27,1.12-2.5,3.74-.25,4.86a36.22,36.22,0,0,0,6,2c1.6.49,3.26.81,4.81,1.41a5.89,5.89,0,0,1,4.2,5.05c.32,3-.61,5.47-3.25,7.08a14.32,14.32,0,0,1-9.16,1.62,15.37,15.37,0,0,1-4.49-1.14A7.2,7.2,0,0,1,498.83,800.9Z" transform="translate(-170.4 -558.24)"/>
    <path class="cls-1" d="M413.85,783.54h3.71V787l.27.09a8.43,8.43,0,0,0,.57-.64c2.92-4.44,10-4.33,13.17-2.17a6.68,6.68,0,0,1,2.94,5.52c.13,6.23.05,12.46.05,18.81h-3.94V807.3c0-4.88,0-9.75,0-14.63,0-2.31-.23-4.52-2.6-5.59a7,7,0,0,0-7.27.78c-2.21,1.57-2.87,4-2.9,6.53q-.06,6.54,0,13.07c0,1.08-.33,1.42-1.37,1.32-.86-.08-1.73,0-2.66,0Z" transform="translate(-170.4 -558.24)"/>
    <path class="cls-1" d="M389.17,850h-3.94v-4.52c0-3.95-.09-7.91,0-11.87s-2.4-6.53-7.07-5.62c-3.67.73-5.69,3.53-5.73,7.87s0,8.48,0,12.71v1.42h-3.93V824.75h3.66v3.62l.25.1a8.81,8.81,0,0,0,.62-.75c3-4.48,10.09-4.19,13.09-2.16a7.12,7.12,0,0,1,3.05,6.08c.12,6,.07,11.9.08,17.86A2.74,2.74,0,0,1,389.17,850Z" transform="translate(-170.4 -558.24)"/>
    <path class="cls-1" d="M213.54,808.68h-4v-25.1h3.67v3.87a11.89,11.89,0,0,0,.85-1c2.89-4.37,10-4.28,13.09-2.15,2.36,1.61,3.07,4.08,3.11,6.69.1,5.8,0,11.6,0,17.4a2.26,2.26,0,0,1-.13.39,27.44,27.44,0,0,1-3.26-.06c-.25,0-.6-.72-.61-1.12,0-5.08,0-10.16,0-15.24a11.86,11.86,0,0,0-.14-1.78,4.57,4.57,0,0,0-4.48-4c-4.91-.27-8.09,2.68-8.13,7.61,0,4.4,0,8.8,0,13.2Z" transform="translate(-170.4 -558.24)"/>
    <path class="cls-1" d="M286.54,832.78h-4.1a1,1,0,0,1-.14-.21c-1.06-3.13-2.73-4.6-5.44-4.77-3.68-.24-6.3,1-7.61,4a13.28,13.28,0,0,0,0,11.37,6.71,6.71,0,0,0,7,3.85c3.36-.35,5.23-1.94,6.08-5.18.08-.3.18-.61.3-1h3.92a9.71,9.71,0,0,1-8.19,9.44,19.08,19.08,0,0,1-5.94-.09c-4.3-.8-6.93-3.62-8.05-7.78a18.2,18.2,0,0,1,.2-10.29,10.76,10.76,0,0,1,11.33-7.91,17.35,17.35,0,0,1,5.46,1.11C284.54,826.63,286.13,829.26,286.54,832.78Z" transform="translate(-170.4 -558.24)"/>
    <path class="cls-1" d="M417.58,832.77h-4.05a.81.81,0,0,1-.16-.2c-1.13-3.28-2.86-4.71-5.81-4.79-3.73-.09-6.3,1.4-7.5,4.58a14,14,0,0,0-.16,9.85,6.86,6.86,0,0,0,7.06,4.85c3.54-.18,5.55-1.87,6.5-5.44l.19-.72h4c-.3,5.11-3.78,8.85-8.27,9.4a19.57,19.57,0,0,1-5.82-.08,9.8,9.8,0,0,1-7.91-7.19,17.66,17.66,0,0,1,.17-11.31A10.86,10.86,0,0,1,407,824.18c3.13.13,6,.76,8.26,3.17A8.75,8.75,0,0,1,417.58,832.77Z" transform="translate(-170.4 -558.24)"/>
    <path class="cls-1" d="M248.59,833.59a74.06,74.06,0,0,0,4.34-6.13c1.24-2.19,2.81-3.19,5.29-2.72a9.78,9.78,0,0,0,1.56,0c-.33.47-.56.81-.8,1.14-2.37,3.17-4.71,6.36-7.13,9.49a1.43,1.43,0,0,0,0,2.06c2.74,3.74,5.42,7.52,8.12,11.29l.92,1.29c-1.8,0-3.38.05-4.95,0-.32,0-.67-.52-.9-.86q-2.83-4.17-5.63-8.35c-.24-.36-.49-.71-.84-1.21l-2.63,3.87c-1.3,1.93-2.54,3.88-3.9,5.76a2.37,2.37,0,0,1-1.53.82c-1.22.12-2.45,0-3.88,0,.3-.49.46-.8.66-1.07,2.67-3.75,5.31-7.51,8-11.22a1.45,1.45,0,0,0,0-2.07c-2.67-3.54-5.27-7.13-8.05-10.92,1.8,0,3.41,0,5,0,.28,0,.59.47.81.78,1.57,2.27,3.12,4.55,4.67,6.83C248,832.77,248.24,833.11,248.59,833.59Z" transform="translate(-170.4 -558.24)"/>
    <path class="cls-1" d="M443.15,787.06h-4.23v-3.57h4.23v-5c0-2.63,0-2.63,2.67-2.62.47,0,.94,0,1.51.08v7.49h4.93V787h-4.88c0,.53-.07.88-.07,1.23q0,7.32,0,14.63c0,1.67.42,2.1,2.1,2.2.87,0,1.75.07,2.63.11a1.23,1.23,0,0,1,.26.13v3.37c-2.38,0-4.76.35-7-.55a3.22,3.22,0,0,1-1.93-3c-.12-1.35-.17-2.71-.17-4.06,0-4.2,0-8.4,0-12.59Z" transform="translate(-170.4 -558.24)"/>
    <path class="cls-1" d="M238.86,787.08h-4.24v-3.56h4.17v-7.64c1.26,0,2.37,0,3.47,0,.23,0,.59.57.6.88.06,1.88.06,3.76,0,5.64,0,.76.24,1.08,1,1,1.27-.05,2.54,0,4,0,0,1.08.05,2.06,0,3,0,.21-.54.5-.84.52-1,.07-2.08.05-3.11,0-.68,0-1,.18-1,.94,0,5,0,10,0,15,0,1.58.53,2,2.11,2.13h.12c3.18.19,3.18.19,2.66,3.59a17.43,17.43,0,0,1-6.59-.41c-2-.66-2.32-2.43-2.34-4.2-.05-5.15,0-10.3,0-15.46Z" transform="translate(-170.4 -558.24)"/>
    <path class="cls-1" d="M319.08,850.05V815.19h4c0,.41.1.83.1,1.25,0,10.76,0,21.51,0,32.27,0,1-.27,1.46-1.34,1.35C321,850,320,850.05,319.08,850.05Z" transform="translate(-170.4 -558.24)"/>
    <path class="cls-1" d="M457.31,783.55h3.92v4.87c2.15-3.47,4.87-5.75,9.27-5.42v4.12c-.69.1-1.43.17-2.16.3-3.84.67-6.08,2.85-6.59,6.7a55.88,55.88,0,0,0-.28,6.21c0,2.75,0,5.51,0,8.43-1.22,0-2.38.06-3.51,0-.25,0-.61-.65-.61-1,0-3.11,0-6.23,0-9.34V783.55Z" transform="translate(-170.4 -558.24)"/>
    <path class="cls-1" d="M283.93,808.69h-4V783.6h3.67v4.89l.27.16c2-3.58,4.64-6,9.09-5.64v4.11c-1,.14-2,.21-2.87.42a7.46,7.46,0,0,0-6,7.34c-.23,4-.16,8-.22,12Z" transform="translate(-170.4 -558.24)"/>
    <path class="cls-1" d="M334.47,815.1v34.84h-4v-1.37c0-10.66,0-21.33,0-32,0-1.27.39-1.62,1.55-1.49C332.77,815.17,333.57,815.1,334.47,815.1Z" transform="translate(-170.4 -558.24)"/>
    <path class="cls-1" d="M301.1,808.68h-3.88V783.55h3.88Z" transform="translate(-170.4 -558.24)"/>
    <path class="cls-1" d="M301.07,778.77h-3.82v-4.83h3.82Z" transform="translate(-170.4 -558.24)"/>
  </g>
</svg>
