<svg id="Layer_1" data-name="Layer 1" xmlns="http://www.w3.org/2000/svg" viewBox="0 0 362.2 124.2">
  <defs>
    <style>
      .cls-1, .cls-3 {
        fill: #fff;
      }

      .cls-2, .cls-3 {
        isolation: isolate;
      }

      .cls-3 {
        font-size: 24px;
        font-family: ArialMT, Arial;
      }
    </style>
  </defs>
  <title>logo_fanshawe</title>
  <g>
    <polygon class="cls-1" points="94.4 25.1 119.2 25.1 119.2 31.6 101.6 31.6 101.6 38.6 117.1 38.6 117.1 45.1 101.6 45.1 101.6 57.7 94.4 57.7 94.4 25.1"/>
    <path class="cls-1" d="M256.7,579.2h6.6l14,32.8h-7.5l-3-7.3H253l-3,7.3h-7.3Zm7.5,19.2-4.3-10.6-4.3,10.6Z" transform="translate(-124.9 -554.3)"/>
    <polygon class="cls-1" points="155.6 25.1 162.3 25.1 177.5 45.2 177.5 25.1 184.6 25.1 184.6 57.7 178.5 57.7 162.7 37 162.7 57.7 155.6 57.7 155.6 25.1"/>
    <path class="cls-1" d="M314.6,607.3l4.2-5.1c2.9,2.4,6,4,9.7,4,2.9,0,4.7-1.2,4.7-3.1V603c0-1.8-1.1-2.7-6.6-4.1-6.6-1.7-10.8-3.5-10.8-10v-.1c0-5.9,4.7-9.8,11.4-9.8a19,19,0,0,1,12.1,4.1l-3.7,5.4c-2.9-2-5.7-3.2-8.5-3.2s-4.2,1.3-4.2,2.8v.1c0,2.1,1.4,2.8,7,4.3,6.6,1.7,10.3,4.1,10.3,9.8v.1c0,6.5-4.9,10.1-12,10.1a20.35,20.35,0,0,1-13.6-5.2" transform="translate(-124.9 -554.3)"/>
    <polygon class="cls-1" points="221.1 25.1 228.3 25.1 228.3 38 241.5 38 241.5 25.1 248.7 25.1 248.7 57.7 241.5 57.7 241.5 44.6 228.3 44.6 228.3 57.7 221.1 57.7 221.1 25.1"/>
    <path class="cls-1" d="M391.4,579.2H398L412,612h-7.5l-3-7.3H387.7l-3,7.3h-7.3Zm7.6,19.2-4.3-10.6-4.3,10.6Z" transform="translate(-124.9 -554.3)"/>
    <polygon class="cls-1" points="283.8 25.1 291.5 25.1 298.3 47.2 305.6 25 311.7 25 319 47.2 325.8 25.1 333.3 25.1 322.1 57.9 315.9 57.9 308.6 36.6 301.2 57.9 295 57.9 283.8 25.1"/>
    <polygon class="cls-1" points="337.4 25.1 362 25.1 362 31.5 344.5 31.5 344.5 38.1 359.9 38.1 359.9 44.5 344.5 44.5 344.5 51.3 362.2 51.3 362.2 57.7 337.4 57.7 337.4 25.1"/>
    <path class="cls-1" d="M155.6,593.2" transform="translate(-124.9 -554.3)"/>
    <path class="cls-1" d="M155.6,593.2" transform="translate(-124.9 -554.3)"/>
    <path class="cls-1" d="M139.9,577.3,155,592.4a.85.85,0,0,0,.6.2,1.1,1.1,0,0,0,.7-.3l9.9-9.8,15.4-15.4h0a2.4,2.4,0,0,0,.9-1.7V554.8a.43.43,0,0,0-.7-.3l-15.6,15.6-15.6-15.7a.6.6,0,0,0-.4-.1c-.2,0-.3.2-.3.4v10.4a1.8,1.8,0,0,0,.7,1.5h0l9.5,9.5h0l-4.5,4.5-15.7-15.7a.6.6,0,0,0-.4-.1.32.32,0,0,0-.3.3v10.4a2.44,2.44,0,0,0,.7,1.8" transform="translate(-124.9 -554.3)"/>
    <path class="cls-1" d="M163.6,606.5" transform="translate(-124.9 -554.3)"/>
    <path class="cls-1" d="M163.6,606.5" transform="translate(-124.9 -554.3)"/>
    <path class="cls-1" d="M163.1,606.5a1.1,1.1,0,0,0-.3-.7l-9.8-9.9-15.4-15.4h0a2.4,2.4,0,0,0-1.7-.9H125.3a.43.43,0,0,0-.3.7l15.6,15.6L125,611.5a.6.6,0,0,0-.1.4c0,.2.2.3.4.3h10.4a1.8,1.8,0,0,0,1.5-.7h0l9.5-9.5h0l4.5,4.5-15.7,15.7a.6.6,0,0,0-.1.4.32.32,0,0,0,.3.3h10.4a2,2,0,0,0,1.6-.6l15.1-15.1a1.49,1.49,0,0,0,.3-.7" transform="translate(-124.9 -554.3)"/>
    <path class="cls-1" d="M192.5,614.5l-15.1-15.1a.85.85,0,0,0-.6-.2,1.1,1.1,0,0,0-.7.3l-9.9,9.8-15.4,15.4h0a2.4,2.4,0,0,0-.9,1.7V637a.43.43,0,0,0,.7.3l15.6-15.6,15.6,15.7a.6.6,0,0,0,.4.1c.2,0,.3-.2.3-.4V626.7a1.8,1.8,0,0,0-.7-1.5h0l-9.5-9.5h0l4.5-4.5,15.7,15.7a.6.6,0,0,0,.4.1.32.32,0,0,0,.3-.3V616.3a2.08,2.08,0,0,0-.7-1.8" transform="translate(-124.9 -554.3)"/>
    <path class="cls-1" d="M169,585.3" transform="translate(-124.9 -554.3)"/>
    <path class="cls-1" d="M169,585.3" transform="translate(-124.9 -554.3)"/>
    <path class="cls-1" d="M207.7,611.5,192,595.9l15.7-15.6a.6.6,0,0,0,.1-.4c0-.2-.2-.3-.4-.3H197a1.8,1.8,0,0,0-1.5.7h0l-9.5,9.5h0l-4.5-4.5,15.7-15.7a.6.6,0,0,0,.1-.4.32.32,0,0,0-.3-.3H186.6a2,2,0,0,0-1.6.6l-15.1,15.1a.85.85,0,0,0-.2.6,1.1,1.1,0,0,0,.3.7l9.8,9.9,15.4,15.4h0a2.4,2.4,0,0,0,1.6.9h10.6a.37.37,0,0,0,.4-.4.31.31,0,0,0-.1-.2" transform="translate(-124.9 -554.3)"/>
  </g>
  <g class="cls-2">
    <text class="cls-3" transform="translate(94.38 87.61)">Centre for Research</text>
    <text class="cls-3" transform="translate(94.38 116.41)">&amp; Innovation</text>
  </g>
</svg>
