<svg id="Layer_1" data-name="Layer 1" xmlns="http://www.w3.org/2000/svg" viewBox="0 0 2850.73 1150.44">
  <defs>
    <style>
      .cls-1 {
        fill: #fff;
      }
    </style>
  </defs>
  <title>logo_nserc</title>
  <path class="cls-1" d="M44.74,612.51c.55,14.08.78,28.13,3.06,42.11,1.08,6.65-1.34,13.39-1.79,20.15-.94,14.3-1.07,28.58-1,42.88,0,5.86-3.32,10.89-3.42,16.83-.17,9.69-4,19-3.71,28.84.14,6-2.41,11.81-3.71,17.67-1.64,7.38-2.67,15.08-5.43,22-2.68,6.75-2.39,14-5.57,20.73A47,47,0,0,0,19,837.51c-.47,3.54-2.45,6.63-3.55,10a163.35,163.35,0,0,1-6.75,18C6.13,871,5.4,877,2.67,882.21a110.86,110.86,0,0,0-7,15.85c-2.3,6.7-6.24,12.57-9.22,18.82-2.59,5.45-5.06,11.25-8.42,16.53-3.87,6.1-7.07,12.73-10.61,19.05-3.1,5.52-7.23,10.61-10.49,16.15-6.46,11-14.22,21-21.37,31.52-5.14,7.53-11,14.57-16.83,21.64-14.8,18-30,35.72-46.89,51.81-14.94,14.22-30.59,27.61-46.78,40.41-8.93,7.06-18,14-27.38,20.29-10.77,7.15-21.53,14.35-32.68,21-10.84,6.44-22,12.29-32.81,18.79-6.85,4.12-14.64,6.74-21.81,10.33a175.38,175.38,0,0,1-20.42,8.78c-6.49,2.26-12.66,5.49-19.48,6.93a41.05,41.05,0,0,0-10.66,4.42c-3.92,2.11-8.25,3-12.17,4.71-4.07,1.72-9,2.26-13.55,3.66-7.21,2.24-14.76,3.11-21.92,5.89-5.52,2.16-11.7,2.58-17.43,4.27-7.6,2.25-15.61,2.06-23.15,4-6.94,1.79-14.15,1-20.91,3.09-8.82,2.78-18,1.49-26.95,3-6.17,1-12.44,1-18.63,2.07-4.2.73-8.64.53-12.95.65-14,.38-28,.84-42-.07-12.79-.83-25.62-2.06-38.39-3.27-10-1-20-2.64-29.85-4.07-9.37-1.36-19.07-1.67-28.46-4.66-5.27-1.67-11-4.42-17-3.85a8.46,8.46,0,0,1-3.26-.86,129.45,129.45,0,0,0-25.43-6.25c-3.2-.44-6.55-2.06-9.44-3.44-7.19-3.43-14.83-5.63-22.19-8.41-6.81-2.57-13.78-5.16-20.89-7.18-6-1.7-11.63-4.75-17.28-7.47-4-1.94-8.39-3.39-12.09-5.6-4.89-2.92-10.14-5-15.05-7.89-6.42-3.73-13.17-6.86-19.56-10.7-6.62-4-13.29-7.87-19.87-11.9s-13-8.44-19.47-12.63q-15.68-10.12-30.31-21.64c-9.55-7.54-19-15.25-28.16-23.25a514.83,514.83,0,0,1-38.35-37.41c-9.65-10.35-19.09-20.94-28-32-8.46-10.51-16.63-21.28-24.16-32.53-9.19-13.72-18.36-27.36-26.39-41.87-4.75-8.58-9.63-17.22-14.62-25.74a197.68,197.68,0,0,1-10.76-22.27c-5.32-12.44-10.8-24.86-15.15-37.66-2.32-6.82-5.33-13.38-7.39-20.34-1.81-6.1-4.51-12.11-6.12-18.31-1.89-7.21-4.34-14.35-5.82-21.49-1.17-5.68-2.36-11.71-4-17.06-3.31-10.47-3.32-21.31-5.56-31.86-1.88-8.85-3.86-17.82-4.29-27.12-.81-17.68-2.08-35.35-3.12-53-1.06-18.19,2.06-36.19.7-54.19-.82-10.9,2.22-21.17,3.15-31.72,1-11.94,3.33-24,5.55-35.91,1.25-6.69,2.6-13.49,4.35-20,1.64-6.08,1.77-12.55,4.52-18.4a42,42,0,0,0,3.48-13.08c.8-7.84,5.41-14.06,6.88-21.15,1.63-7.8,5.24-14.79,7.33-22.35a87.15,87.15,0,0,1,8.54-21.06c2.84-4.8,4.29-10.32,6.57-15.45,2.48-5.59,5.14-11.11,7.79-16.61,3.64-7.54,7.35-15.08,11.66-22.24,7.18-11.93,14.16-24,21.8-35.67,6.43-9.82,13-19.57,20.12-28.81,11.63-15,23.51-29.87,36.53-43.83,11.16-12,22.68-23.55,34.42-34.88a458.34,458.34,0,0,1,41.48-34.89c11.82-9,24-17.45,36.24-25.8,9.22-6.28,19.49-11,28.82-17.16,8.26-5.43,17.26-9.4,25.81-14.23,5.35-3,11.28-5.37,17-7.87,6-2.61,12.09-5.24,18.15-7.8a112,112,0,0,1,13.57-4.87,62.67,62.67,0,0,0,9-3.53c7.22-3.21,15-4.82,22-8.7,3.47-1.92,8-2.79,12-3.61,15.63-3.2,30.81-8,46.26-11.84,9.5-2.35,19.42-3,29.15-4.4,10.74-1.55,21.46-3.17,32.22-4.58a126.62,126.62,0,0,1,15.77-1.35,363.5,363.5,0,0,0,37.17-2c6.5-.7,13.29,0,19.8,1,8,1.27,15.9.62,23.84.84,9.4.26,18.68,1.15,28,2.31,10.23,1.26,20.47,3.21,30.83,4.08,8.46.72,17.05,2.72,25.52,4.48,7,1.45,13.44,4.6,20.67,5.39,5,.54,9.94,2.69,15.05,3.68,3.35.65,6.44,2.21,10.06,2.21s6.73,2.23,9.82,3.48c7.33,3,14.77,5.83,22.24,8.29,7,2.3,13.66,5.54,20.89,7.22,3.6.84,6.83,3,10.24,4.46,11.22,4.86,22.37,9.92,33.2,15.59,9.75,5.1,19.12,10.95,28.49,16.74,11,6.8,22.06,13.52,32.64,20.92,16,11.2,31.25,23.38,46.44,35.71,17.67,14.35,33,31,49.1,46.84,6.18,6.09,11.18,13.36,17.09,19.75,10.62,11.46,19.81,24.06,29.05,36.56,6.21,8.41,11.81,17.38,17.53,26.19,5.33,8.21,10.07,16.79,15.39,25s9,17.23,13.33,25.94c3.9,7.81,8.3,15.44,11.42,23.56,2.63,6.88,6.51,13.36,7.57,20.82.49,3.49,2.95,6.12,4.25,9.29,2.8,6.85,4.9,14,7.52,20.85,1.77,4.67,4.66,9.38,4.2,14.81-.15,1.8.79,3.17,1.51,4.64,3.05,6.25,3.15,13.29,5.32,19.83,1.76,5.29,2.6,11.06,4.21,16.34,2.26,7.42,2.16,15.18,4.75,22.52,1.35,3.84-.1,8.53,1.23,12.74,2.8,8.91,2.24,18.41,5.44,27.41C46.2,600.68,44.74,606.86,44.74,612.51Zm-854.16-99.86c-1.87,1-1.25,2.62-1.94,3.79-7.36,12.47-13.93,25.38-20.85,38.09-4.33,7.94-8.27,16.15-12.55,24.16-.81,1.51-1.52,3.28-3.3,3.36-5.31.22-10.91,1.22-15.88-.61-10.75-4-22.18-3.2-33.17-4.76s-22.25-3.12-33.35-4.46c-12.85-1.55-26-1.79-38.65-5.59-7.5-2.26-9.74.51-7.28,7.82,3.5,10.42,5.9,21.13,8.65,31.72,1.26,4.84,3.4,9.6,3.72,14.6.39,6.17,2.24,12.2,4.19,17.65,3.69,10.27,5.41,21,8.43,31.36,3.41,11.68,6,23.68,9.16,35.51,1.33,5,3.34,10.45-2.23,15.07-11.94,9.9-23.46,20.33-35.37,30.28-2.76,2.3-2.53,3.73-.1,5.58q10.23,7.81,20.2,16c17.41,14.2,35.42,27.66,53.06,41.58,18.12,14.28,36.06,28.78,54.13,43.12,8,6.33,16.21,12.33,24,18.8,7.38,6.08,14.9,12,22.37,17.93,13.67,10.86,27.35,21.72,41.15,32.41,3.6,2.8,3.52,5.32,2.44,8.91-1.6,5.35-4.42,10.25-7.05,14.95-6.3,11.2-11.73,22.86-17.52,34.27-6,11.74-11.81,23.62-17.33,35.62-2.34,5.1-.21,5,3.32,4.93,8.33-.18,16.65-.54,25-.61q40-.36,80-.56c8.25,0,8.25,0,9.09-8a11.69,11.69,0,0,1,.43-1.93c3.24-11.7,2.7-24,5.58-35.73,1.37-5.59-.5-11.52,1.59-16.79,4-10.23,3.23-21.22,4.63-31.72,1.36-10.22,3.22-20.51,4.13-30.87,1.55-17.78,4.47-35.43,6.85-53.13A32.51,32.51,0,0,1-663,841c3-10.54,2-21.59,4.5-32.29,1.44-6.11,1.58-12.71,3.13-19,.44-1.75.27-4,2.9-3.81,3,.21,2.56,2.65,2.44,4.57-.59,9.67,2.31,19,3.86,28.3,1.92,11.38,3.48,22.87,4.95,34.27,1.14,8.82,3.13,17.49,4.43,26.26,1.82,12.36,3.17,24.84,5.7,37.13.83,4,.79,8.22,1.53,12.33,1.75,9.71,3.81,19.42,4.59,29.22.9,11.43,3.43,22.6,5.05,33.86,1.23,8.56,1.69,17.37,3.87,25.88.87,3.43,1.77,5.27,5.7,5.2,11.33-.21,22.67-.28,34,0,4.9.11,6.79-2.11,7.58-6.56,1.12-6.29-.43-12.72,1-18.9,3.59-15.43,2.94-31.31,5.19-46.93,2.87-19.91,3.58-40.14,6.11-60.18,1.46-11.61,2.06-23.34,3.89-35,1.48-9.4.87-19,2.72-28.53,2.05-10.59,2.6-21.7,3.2-32.56.7-12.78,3.33-25.31,3.68-38.08a105.55,105.55,0,0,1,1.33-13.86,490.66,490.66,0,0,0,5-49.63c.61-10.65,4.51-20.78,3.53-31.59-.82-8.94,3.14-17.54,2.7-26.54-.06-1.2.24-2.76,2.2-2.67,1.33.06,3-.16,3,1.69,0,5.39,3,10.2,3.09,15.45.36,18.28,2.71,36.35,5.53,54.37,1,6.13-.59,12.57,1.15,18.35,3.82,12.69,2.47,25.89,5.13,38.79,3.51,17.06,3.31,34.83,6.36,52.11,1.71,9.65,1.92,19.48,2.78,29.18,1.22,13.6,3.41,27.08,5,40.6,1.67,14.4,2.13,29,5.48,43.25,1.39,5.9.31,11.94,1.19,17.87,2.47,16.67,4.61,33.37,5.74,50.19.6,9,4.16,17.69,3.34,26.93-.16,1.73,1.57,2.13,3.28,2.12q19.5-.13,39-.08c2.7,0,3.74-1,4-3.73,1.06-9.71,2.89-19.35,3.51-29.07.39-6,3.25-11.5,3.26-17.5,0-12.32,4.24-24.2,3.72-36.56a4.14,4.14,0,0,1,.26-1.47c3.55-10.6,3.5-21.8,4.91-32.69,1.62-12.47,3.49-24.89,5.48-37.28,1.62-10.09,2.84-20.31,4.13-30.38,1.41-10.93,4.37-21.78,4-33a28.79,28.79,0,0,1,2.18-12.59c.73-1.63.41-4.08,3.57-3.61s1.89,2.62,2.07,4.19c1,9,2.22,18.12,4.05,26.9,2.06,9.85,2.77,19.88,4.6,29.73,2.64,14.2,4.34,28.69,7,43,1,5.55.25,11.18,1.87,16.78,2.71,9.34,2.82,19.25,4.23,28.85,1.53,10.41,2.45,21.23,4.34,31.45,2,10.88,2.88,22,5.22,32.77,1.33,6.11,1,12.48,2.91,18.56.95,3.06,2.06,5,5.72,4.78,6.65-.41,13.31-.61,20-.69,27.83-.35,55.65-.61,83.48-1,2.63,0,5.91,1.19,7.76-.65,2.8-2.78-1.77-4.27-2.19-6.66a2.74,2.74,0,0,0-.07-.5c-3.2-8.2-8.38-15.39-11.46-23.74-2.66-7.23-7.37-13.71-10.8-20.64-5.94-12-12.16-23.79-18.61-35.5-1.77-3.21-2.07-6.29,1.87-9.4,16.16-12.72,31.9-26,47.82-39q29-23.69,58-47.28c15.51-12.58,31.06-25.12,46.76-37.47,20.39-16,40.22-32.8,60.35-49.19,2.53-2.06,2.71-3.38,0-5.65-11.73-9.86-23.07-20.21-35-29.82-4.17-3.36-5-7-3.6-11.29,1.3-3.94,2-8,3.12-11.91,3.43-12.21,5.76-24.69,9.19-36.87,3.26-11.56,6-23.28,8.85-34.91,3-12,6.42-23.89,8.6-36.05,1.24-6.85,4.41-13.14,4.94-20.17.23-3-.81-3.28-3.24-3.39-4.12-.18-7.77,1.8-11.71,2.23-15.47,1.67-30.78,4.39-46.17,6.51q-21.59,3-43.08,6.51c-7.16,1.18-14.61-.21-21.57,2.81a4.17,4.17,0,0,1-5.53-2c-4.3-7.68-8.37-15.48-12.74-23.13-7.81-13.64-15-27.63-22.28-41.57-1.45-2.78-2.76-2.9-4.86-1.07-3.21,2.79-6.31,5.71-9.66,8.32-8.19,6.36-16.54,12.52-24.75,18.86-16.84,13-33.63,26.09-50.72,38.79-14.69,10.93-28.9,22.5-43.55,33.49-5.84,4.39-10.71,10.59-18.44,11.59.42-9.71,3-19,5.23-28.17,2.92-11.82,4.82-23.85,8-35.62,3.07-11.43,5.15-23.12,7.67-34.7,3-13.83,5.94-27.68,9.07-41.48,1.89-8.36,4.82-16.55,5.95-25,1-7.73,3.52-15.07,4.68-22.74,1.09-7.13,3.29-14.09,4.69-21.19,1.52-7.76,3.16-15.54,5.07-23.15,1.73-6.88,2.41-14,4.6-20.78.7-2.19,1.86-5.83-.5-7.36-2.13-1.39-4.52,1.09-6.54,2.51a4.59,4.59,0,0,1-.9.41c-13.35,5.63-26.78,11.08-40,16.94s-26.28,12.22-39.48,18.2c-2.88,1.31-6.41,2.22-8.12-1.61-2.16-4.82-5.1-9.2-7.63-13.76-8.77-15.84-18.3-31.25-27.5-46.85q-9.47-16.08-18.82-32.23c-5.95-10.28-11.72-20.67-17.76-30.9-5.82-9.85-12.06-19.45-17.79-29.35-2.4-4.14-4-1.89-5,.39-6.1,13.44-14.55,25.58-21.32,38.64-3.56,6.88-7.47,13.57-11.25,20.33-3.34,6-6.64,12-10.09,17.89-4.88,8.36-10.46,16.38-14.65,25.07-4.27,8.85-10,16.82-14.34,25.6-4.58,9.2-10.88,17.47-14.9,27-1.11,2.63-3.07,2.93-5.76,1.94-5.81-2.13-11.43-4.64-17-7.21-9.5-4.34-19.32-7.92-28.76-12.4-3.23-1.54-6.51-3.06-9.81-4.48-6.63-2.85-13.36-5.47-20.05-8.17-4.06-1.63-8.1-3.33-12.22-4.8-.93-.33-2.58-1.15-2.65,1.44-.21,8.39,2.62,16.38,4.42,24.26,1.5,6.55,2.92,13.38,4.81,20a172.84,172.84,0,0,1,5,22A243.71,243.71,0,0,0-694.56,457c1.51,5.76,1.61,11.88,3.77,17.28,3,7.48,4.09,15.34,5.54,23,1.2,6.39,3.67,12.45,4.16,19.14.31,4.15,2.41,8.45,2.28,13-.09,3.2,3.4,4.84,3.15,8.59-.5,7.64,2.61,15,4.68,22.12,2,6.8,2.64,13.86,4.51,20.65,1.21,4.4,3.55,8.94,3.44,13.59-.17,7.26,4.54,13.57,3.47,20.9a3.67,3.67,0,0,0,1,2.23c1.49,1.93,3,4.15.63,6s-4.28-.21-6.08-1.66c-8.77-7.09-18.1-13.44-27-20.37-7.71-6-15.74-11.62-23.35-17.75-15.4-12.41-31.54-23.85-47.3-35.77S-793,523.67-809.42,512.65Z" transform="translate(1100.56 -85.84)"/>
  <path class="cls-1" d="M426.13,623.28c-19.32,0-38.64-.06-58,.05-2.92,0-3.78-.88-4.41-3.83-4.15-19.53-5.08-39.52-8.83-59.12-2-10.53-2.13-21.43-4.15-32-2.23-11.58-3-23.33-5.06-34.9-1.39-7.67-1.83-15.51-3.72-23.11-.31-1.28-.09-3.18-1.63-3.24-1.95-.07-1.5,2-1.33,3.1.93,6-2.17,11.47-3.61,16.83-2.11,7.85-1.55,16.11-4.81,23.78-1.95,4.6-2.68,10-3.28,15-1.62,13.52-6,26.42-7.89,39.89-1.17,8.19-4,16.38-5.56,24.62-2,10.07-4.25,20-6.56,30-.56,2.42-1.79,3.32-4.13,3.33q-38,0-76,.08c-3.34,0-5-1.24-4.22-4.88q3.34-15.81,6.52-31.66c2.65-13.33,5.79-26.61,8.13-40,2.42-13.74,6.13-27.17,8.52-40.92,2.24-12.84,4.81-25.74,8-38.46,2.77-10.91,4.78-22,6.9-33.1,2.69-14,5.84-27.91,8.64-41.88,2-10.07,4.28-20.1,6.21-30.19.76-4,2.7-5.53,6.81-5.51,22.33.07,44.66-.25,67-.09,15.75.11,31.5-.2,47.24-.18,4.39,0,5.52,1.17,6.45,5.65,2.12,10.24,1.88,20.84,5.17,30.85a14.71,14.71,0,0,1,.78,5.41c-.75,10.94,2.68,21.41,4.19,32,1.24,8.68,1.65,17.49,3.36,26.08,3.49,17.54,4.8,35.41,8.15,53,.24,1.22-.07,3.09,1.83,2.92,1.57-.15.87-1.85,1.1-2.89,1.86-8.39,2.64-17,5.11-25.26a99.71,99.71,0,0,0,3.51-16c1.65-13.22,5.45-26,7.87-39,2.36-12.64,4.57-25.43,8.08-37.9a166.83,166.83,0,0,0,4.17-22c.49-3.52,1.78-6.73,2.68-10.08.62-2.31,2.44-2.77,4.68-2.77q38,0,76-.2c3.13,0,4.07,1.32,3.91,4.25-.4,7.17-3.24,13.81-4.31,20.87-.51,3.34-1.74,6.65-2,10.16-.53,7.47-3.5,14.43-4.7,21.77-.32,2-1.23,3.85-1.42,5.81-1,10-4.45,19.61-5.89,29.46-1.08,7.39-2.75,14.65-4.34,21.84-1.81,8.22-3,16.57-5,24.77-1.83,7.66-4.39,15.27-4.55,23.38-.12,5.71-2.31,11.29-3.75,16.77-2.27,8.66-2.74,17.61-5.43,26.18s-3.9,17.77-5.53,26.68c-1.37,7.44-4.34,14.6-4.29,22.32a17.57,17.57,0,0,1-.8,4.91c-1.39,5-4,7.52-9.91,7.38-18.65-.45-37.32-.17-56-.17Z" transform="translate(1100.56 -85.84)"/>
  <path class="cls-1" d="M1313.16,882c2.84-3.81,2.89-8.14,4.17-12.15,1.92-6,2.67-12.3,4-18.46,1.84-8.72,4.15-17.37,5.5-26.16a223.44,223.44,0,0,1,4.44-22.86c2.2-8.36,2.38-17.07,5.28-25.27,1.82-5.16,2.3-10.74,3.2-16.07,1.29-7.69,3.62-15.16,4.45-22.92.94-8.76,3.31-10.8,11.91-10.89,23.33-.25,46.65-.4,70-.88,4.33-.08,5.63,1.78,4.9,5.29-1.42,6.81-2.46,13.69-3.9,20.46-1.91,9-4.27,18-5.33,27.2-.68,5.9-2.53,11.69-4,17.34-2.09,7.72-2.63,15.66-4.67,23.38-1.86,7.08-3.72,14.37-4.34,21.89-.56,6.86-2.79,13.57-4.19,20.37-1.86,9-3,18.32-5.64,27.13-2.32,7.66-1.89,15.76-4.89,23.24-1.9,4.75-2,10.06-2.84,15.06-1.42,8.15-3.18,16.28-5.12,24.25s-1.7,16.13-5.06,23.63c-1,2.36-.83,4.88-1,7.37-.37,7.09-2.47,9.05-9.47,9.07-37.83.08-75.66.1-113.49.36-4.62,0-5.57-1.54-6.22-5.93-1.54-10.46-2.14-21.11-5-31.35-1-3.61-.54-7.3-1.08-10.92-1.78-11.95-3.65-23.9-5.51-35.84-1.65-10.6-2.22-21.48-4.34-32-2.45-12.19-1.93-24.81-5.82-36.74-.35-1.08-.21-2.72-1.66-2.69s-1.16,1.7-1.34,2.77c-1.67,9.49-3.29,19-5.3,28.43-1.45,6.83-4.2,13.62-3.92,20.87.24,6.36-2.74,12.2-4.13,18.18-1.83,7.83-1.6,16.08-5,23.71-1.91,4.33-2.38,9.73-2.83,14.38-.74,7.62-3.13,14.78-4.34,22.22-1.11,6.82-2.86,13.55-3.78,20.46-.41,3.13-3,5.1-7,5.12-24.49.13-49,.49-73.46.72-5.58.06-7.58-2-5.76-7.28,4.33-12.58,5.47-25.84,8.52-38.69,1.77-7.45,4.18-14.95,4.2-22.93,0-5.34,2.44-10.54,3.65-15.83,2.28-10,2.86-20.43,6.15-30.12,2.65-7.8,2.77-15.94,4.82-23.81,1.81-6.94,4.26-14,4.23-21.37,0-5.45,2.58-10.27,3.72-15.43,1.9-8.55,2.9-17.25,5-25.79,1.75-7.16,4.14-14.28,4.34-21.88.16-6.45,2.88-12.54,4.09-18.9.89-4.71,2-9.4,2.58-14.17,1-7.85,2.26-9,10-9.06,37.83-.18,75.66-.29,113.49-.53,3,0,4.33.64,5,3.89,3.22,15.46,3.8,31.36,7,46.69,2.24,10.62,2.64,21.35,4.54,32,2.07,11.5,4.08,23.08,5.18,34.81C1308.28,857.6,1311.08,869.76,1313.16,882Z" transform="translate(1100.56 -85.84)"/>
  <path class="cls-1" d="M700.65,995.57c-15.83,0-31.65-.08-47.48.06-4,0-4.16-2.17-4.18-5.14-.14-17.78,0-35.52,2.49-53.21,1-7.37.73-15,.53-22.45-.2-7.25-6.31-11.34-13.15-12.45-5.53-.89-11.3-.26-17-.35-2.86,0-3.4,1.32-4.22,4.07-2.57,8.54-2.12,17.65-5.59,26-2,4.69-2,10.06-2.9,15-1.32,7.43-3.15,14.8-4.45,22.25-1.22,7-2.68,13.94-4,20.91-.73,3.86-3.32,5.8-7.92,5.82-30.15.1-60.3.54-90.44.9-7.54.09-7.42.15-4.92-7.1,1.67-4.86,1.86-10.12,2.74-15.15,1.41-8,3.41-15.87,5.09-23.77s2.81-15.6,4.58-23.34c1.56-6.87,3.6-13.69,4.48-20.78.91-7.36,2.85-14.61,4.59-21.85a40.28,40.28,0,0,0,1.41-5.78c.81-9.09,4.18-17.68,5.48-26.65,2-14,6.62-27.42,8-41.49.45-4.65,2.42-8.93,3.46-13.45,1.86-8,2.16-16.4,5.11-24.26,1.66-4.43,2.15-9.42,2.73-14.08,1-8,4.42-15.34,4.77-23.34.19-4.26,3-4.15,5.92-4.17q23-.17,46-.27c34.49-.2,69-.49,103.47-.54,10.31,0,20.72-.08,30.92,1.22,6.56.83,13.12,2.87,19.59,5,9.53,3.11,16.64,8.68,23,16a23.48,23.48,0,0,1,4.9,9.4c2.19,9.05,5.09,18.12,1.48,27.87-1.94,5.25-1.92,11.22-3.45,16.87A67.38,67.38,0,0,1,764,837.71c-7.32,7.4-16,12.58-25.49,16.95-4.26,2-9,1.94-12.84,4.53-.94.63-2.32,1.16-2.14,2.51.2,1.57,1.7,1.21,2.8,1.3,19,1.66,30.28,14,29.79,33.38-.36,13.81.28,27.78-1.63,41.39a290.13,290.13,0,0,0-2.35,39.68,115.28,115.28,0,0,0,.64,12.46c.41,4-1.29,5.25-5.14,5.22-15.66-.13-31.33,0-47,0ZM643.08,840.41a53.22,53.22,0,0,0,15.41-2.76c14.86-4.75,23.33-18.28,21.37-33.17-.45-3.41-1.92-6.5-5.56-8.24-9.12-4.37-18.94-4.41-28.66-4.77-2.26-.08-5.06,1.87-5.07,4.67,0,5.07-2.3,9.68-2.79,14.4C637,818.17,633,825.24,634,833c.3,2.53-4.07,4.89-.73,6.84,2,1.19,5.19.45,7.85.56C641.75,840.44,642.42,840.42,643.08,840.41Z" transform="translate(1100.56 -85.84)"/>
  <path class="cls-1" d="M1354.88,617.3c-15.16,0-30.32-.1-45.48.06-4.6,0-6.2-1.32-6.41-6.28a251.41,251.41,0,0,1,1-37.34c1.26-11.93,1.61-23.85,1.81-35.81.13-7.26-6.56-13.13-12.61-13.68-5.79-.53-11.65-.21-17.48-.22-3.23,0-4.23,1.58-4.83,4.88-1.63,9-2.33,18.26-5.34,27.08-1.48,4.34-1.85,9.11-2.52,13.63-1.26,8.5-3.66,16.73-5.18,25.15-1.12,6.17-2.84,12.19-3.32,18.53-.31,4.19-4.11,4.55-7.67,4.56q-30.75.09-61.49.31c-9.82.08-19.64.31-29.46.6-4,.12-5.19-1.12-4.36-5.34,2.89-14.75,6.19-29.45,8.87-44.19,2.49-13.66,6.19-27.08,8-40.91.91-6.86,2.77-13.91,4.4-20.82,1.85-7.86,2.75-16,4.94-23.81,2.43-8.62,3.14-17.53,5.19-26.22,1.65-7,4.1-14,4.18-21.42.06-6.29,2.81-12.19,4-18.38,1.87-10.08,3.3-20.34,6.13-30.15,2.27-7.85,1.51-16.29,5.28-23.73a5.29,5.29,0,0,0,.4-1.44c1.81-9.36,1.82-9.15,11.56-9.57,28.63-1.22,57.28-.55,85.91-.94,19.66-.26,39.31-.37,59-.82,12.83-.3,25.63,1.24,38,3.48,13.38,2.42,26.47,7.8,34.63,20.12,3.05,4.6,6,9.47,5.79,15.39a5.3,5.3,0,0,0,.09,1.49c4,14.11-.6,27.55-4.1,40.8-1.6,6.05-5.19,11.83-8.93,17.34a67.91,67.91,0,0,1-23.51,21.46c-6.39,3.55-12.79,7.46-20.28,8.57-1.75.26-3.43.61-3.48,2.78-.06,2.5,2,2.34,3.57,2.4,13.08.49,21,8.16,26.45,19.1,2.12,4.29,1.52,9.19,1.51,13.8,0,12.65.85,25.4-1.07,37.91-3,19.34-2.36,38.71-1.93,58.11.08,3.79-2.6,3.26-4.82,3.27-15.49,0-31,0-46.49,0Zm-69.78-155c7.06.13,14.43-2.39,21.73-5.83,11.8-5.56,18.92-22.5,14.12-34.65a6.28,6.28,0,0,0-2.53-3c-9.93-6.63-21.13-6.6-32.4-6.13-1.43.06-1.64,1.21-1.93,2.45-1.29,5.44-2.12,11.09-3.53,16.36-1.84,6.83-2,14-4.74,20.65-3.41,8.12-1.94,10.08,6.71,10.11Z" transform="translate(1100.56 -85.84)"/>
  <path class="cls-1" d="M1675.48,840.82q30.74,0,61.49,0c6.4,0,6.37.06,5.36,6.35-2.49,15.54-6,30.86-9.34,46.23-2.71,12.42-4.71,25-7.28,37.46-2.64,12.79-5.59,25.52-8.39,38.28-.25,1.14-.47,2.29-.64,3.44-1,6.75-3.24,8.68-10.18,9.53-8.7,1.06-17.13,3.52-25.66,5.45a33.24,33.24,0,0,1-3.88,1c-20.55,2.3-40.89,6.11-61.56,7.81-15.3,1.26-30.61,2.76-45.79,1.2-11.75-1.2-23.6-1.81-35.29-4.9-16.81-4.45-31.69-11.8-44.35-23.49a73,73,0,0,1-17.56-24.46,121.61,121.61,0,0,1-9.49-62c1.29-12.31,3.12-24.74,6.48-36.61,8.2-28.93,21.09-55.64,42.34-77.48A152.72,152.72,0,0,1,1554,737.82c12.21-6,25.07-9.44,38.08-13.07,25.46-7.11,51.41-6.91,77.12-5.09,11.86.84,24.26,2.85,36,7.88,10.26,4.41,19.92,9.05,28,16.6,9,8.4,12.49,19.62,14.6,31.28,1.44,7.92.41,16,.08,23.93-.25,6-1.41,7.19-7.62,7.23q-39.24.31-78.48.52c-2.67,0-5.38-.3-8,.1-4.66.72-5.86-1.46-5.87-5.61,0-8.57-6-14.47-14.55-14.64-3.33-.07-6.68-.2-10,0-14.24.76-24.83,7.73-31.75,19.92-5,8.86-7.69,18.62-10.34,28.55-2.85,10.68-6.08,21.38-7.88,32.19-2.36,14.16-6.42,28.42-4.06,42.95,1.24,7.58,5.41,13.64,13.32,16.8,11.17,4.48,22.11,3.93,33.22.29.15,0,.31-.18.46-.18,10.68.29,11.39-7.86,12.39-15.22a60.15,60.15,0,0,1,2.61-12.61c2-5.58,1-6.74-4.84-6.74-8.33,0-16.67-.1-25,.09-3.94.09-5.61-1.89-4.33-5.17,2.49-6.42,2.67-13.29,4.56-19.84,2-7,2.43-14.32,4.27-21.42,1.08-4.15,2.55-5.77,6.92-5.73,20.83.18,41.66.08,62.49.08Z" transform="translate(1100.56 -85.84)"/>
  <path class="cls-1" d="M624,539.21c15.16,0,30.33-.05,45.49,0,5.16,0,5.94,1.35,5,6.53-1.28,7.24.35,14.52,6.78,17.71,5.24,2.59,11.4,5.93,18.33,2.91,4.12-1.8,8.7-2.39,12.9-4.48,7.74-3.86,13.59-16.29,11-24a11.09,11.09,0,0,0-5.78-6.49A120.35,120.35,0,0,0,696.42,524c-8.23-2.06-16.21-5.16-24.32-7.75-4.81-1.54-9.67-3-14.49-4.48-5.92-1.86-11.92-3.43-17.73-5.72-5.61-2.21-11.37-4-16.59-7.12-10.52-6.21-18.65-14.48-22.4-26.43-4.9-15.59-2.56-30.63,2-46a94.85,94.85,0,0,1,13.69-28.28c9.49-13.38,21.91-23.61,36.49-31.45,10.1-5.42,20.9-8.89,31.65-12.07a98.42,98.42,0,0,1,21-4.05c14.06-.92,28-3.35,42.17-3.05A210.41,210.41,0,0,1,781,351.16c18.31,3.36,36.28,9.11,48.66,24.56,5.18,6.48,8.75,13.78,9.55,22.68.83,9.2.18,18.2-.28,27.3-.18,3.61-1.4,5.31-5.42,5.31q-42.24-.06-84.48.28c-3.27,0-4.77-1.28-4.23-4.46.78-4.56-.92-8.48-3-12.23-1.83-3.22-5.82-4.73-8.57-5.08-10.74-1.39-21.47-1.17-29.7,7.86-3.09,3.4-6.61,7-5.15,11.7,1.79,5.74,6.65,8.95,12.37,11,10,3.64,20.52,5.64,30.74,8.61,5.59,1.62,11.53,2.8,17.07,4.59,4.93,1.6,10,2.66,14.92,4.67,6,2.49,12.19,4.71,18.21,7.28,13.28,5.66,23.94,14.44,30.47,27.39,2.68,5.32,4.61,11.17,4.23,17.55-.46,7.64-.42,15.32-.3,23,.06,3.89-2.42,6.8-3.36,10.32A106.12,106.12,0,0,1,811.33,570a102.48,102.48,0,0,1-17.94,22.32c-4.82,4.59-10.84,7.89-16.28,11.83-7.4,5.36-16.09,8.2-24.19,12.17-3.4,1.67-7.52,2-11.26,3.42-3.45,1.33-7.34,3.05-10.76,3.19-9.54.38-18.47,4.18-28,4-7.3-.12-14.61.68-21.92.64-10.81,0-21.66,0-32.41-.9a125.38,125.38,0,0,1-25.21-5.14,119.46,119.46,0,0,1-19.13-7.51C592.81,608.41,584,600.43,578,589c-7.79-14.89-6.39-30.45-4.73-46.17.37-3.51,3.14-3.08,5.28-3.11,13.49-.18,27-.2,40.48-.27h5Z" transform="translate(1100.56 -85.84)"/>
  <path class="cls-1" d="M868,911.58c13.32,0,26.64,0,40,0,6.19,0,6.35.86,5.65,7-1,8.76,3.26,20.46,15.18,21.35,13.47,1,25.24-2.08,31.84-14.34,6-11.18,2.89-19-9.37-23.7-5.36-2-11.08-2.68-16.32-5.3-3.22-1.61-7.21-2.35-10.75-3.14-8.88-2-17.31-5.36-25.95-7.93-8-2.39-16.15-4.91-24.05-8a79.55,79.55,0,0,1-18.46-10c-11.91-8.7-17.56-20.36-17.9-35.15-.25-10.74.24-21.42,3.57-31.5,6.67-20.09,17.58-37.36,35.2-50.1C884.62,745,893.36,740.58,902,736a57.85,57.85,0,0,1,10.14-3.69c12.94-4,26.24-6.44,39.66-8.54a197.76,197.76,0,0,1,50.77-1.05c12.66,1.3,25.84,2.75,38,8.33,9.69,4.45,19.7,8.21,26.8,16.63,6.56,7.76,11.05,16.3,11.81,26.91.59,8.19-.48,16.25-.2,24.37.13,3.53-1.31,5-5,5-18.16,0-36.32.06-54.49.23q-14.71.15-29.44.71c-4.2.15-6-1.32-6-5.75-.06-9.39-5.17-16-15.39-15.38-4.16.24-8.39-.33-12.48.24-8.26,1.17-17.93,7.66-18.25,17-.15,4.41,2.35,7.2,5.13,9.1a42.16,42.16,0,0,0,11.53,5.22c5.78,1.78,12,2,17.49,4.81,3.93,2,8.58,2.21,12.79,3.27,9.1,2.29,17.72,6.23,27,7.63,3.12.47,5.69,2.4,8.61,3.46,14.25,5.2,27.6,12.14,36.9,24.8,5,6.81,8.31,14.42,8.65,23a154.57,154.57,0,0,1-.16,21,51.54,51.54,0,0,1-4.69,17c-1.66,3.48-1.59,7.26-3.44,10.79-7,13.34-14.18,26.58-26.37,35.86-7.7,5.85-15.17,12-24.32,16.08-6.38,2.82-12.77,6.08-19.32,8.07-5.06,1.54-10.28,3.19-15.51,4.46-10.35,2.5-20.92,3.46-31.34,5.1-11.79,1.86-23.93.59-35.91.91-11.09.3-21.87-2.19-32.53-4a86.18,86.18,0,0,1-30-10.73c-6.74-4-13.14-8-18.25-14-10-11.74-13.59-25.52-12.58-40.55.32-4.81.53-9.62.74-14.44.14-3.36,1.39-5,5.19-5,16.81.18,33.63.08,50.45.08Z" transform="translate(1100.56 -85.84)"/>
  <path class="cls-1" d="M418.51,831.43c-14.66,0-29.31,0-44,0-3.17,0-4.54-1.32-4.46-4.51.13-5,0-10,.07-15,0-5.85-2.8-10.27-6.89-14.08a3.67,3.67,0,0,0-1.64-1c-13.45-2.42-24.54-1.63-33.47,9.82-3.64,4.67-7.86,9.71-8.33,16.42-.2,2.94-2.44,5.34-3.55,8.12-4,10.17-6.32,20.93-8.26,31.45-3.12,16.83-7.59,33.6-7.1,51,.32,11.4,8.36,21.84,19.4,21.6,8.15-.18,16.5-2.84,21.53-11A79.33,79.33,0,0,0,351.54,903c.83-3.12,3.27-4.41,6.47-4.42q44.24-.16,88.47-.34c4.32,0,5.85,2.18,4,6.08-2.71,5.83-3.35,12.29-5.81,18.14a147.29,147.29,0,0,1-7.05,14c-6.52,11.86-14.46,22.68-25.14,31.1-8.58,6.76-17,13.65-27.05,18.6-6.06,3-12.15,6.46-18.44,8.28-10.2,3-20.55,5.66-31,7.86-13.79,2.88-27.42,2.61-41.12,2.31-14.25-.31-28.52-2.2-42-6.94-16-5.64-30.2-14.55-40.57-28.47-7.19-9.66-11.48-20.59-14.7-32.19-3.94-14.23-4.34-28.66-3.3-43a202.16,202.16,0,0,1,5.45-32.76c1.95-8,3.61-16.16,6.28-24,4.59-13.4,9.94-26.49,17.68-38.47,12.69-19.61,28.6-35.81,48.63-48.13a148.59,148.59,0,0,1,31-14.73c11.87-3.9,24.14-7.78,37.16-7.91,9.23-.09,18.33-2.82,27.72-2.51,16,.53,32,2.12,47.14,6.92,13.41,4.24,26.34,10.45,36.1,21.19,5.65,6.22,9.58,13.5,13,21.42,3.8,8.85,2.91,18,4,26.79,1,8.33-1.49,17.12-1.65,25.79-.06,3.14-2.9,3.07-5.32,3.06q-21.5,0-43,0Z" transform="translate(1100.56 -85.84)"/>
  <path class="cls-1" d="M976,620.17H880.55c-7.48,0-7.32,0-5.25-6.95a91,91,0,0,0,3-15.08c.95-8.14,3.08-16,4.95-23.85s2-16.11,4.9-23.82c1.76-4.58,2.17-9.72,2.89-14.56,2.06-13.95,6.79-27.35,8-41.45.39-4.58,2.43-8.85,3.22-13.48,2.12-12.56,5.38-24.91,8-37.4,1.54-7.45,2.55-15,4.55-22.38,2.37-8.75,3-17.89,5.51-26.68a96.87,96.87,0,0,0,3.25-17.06c.72-7,3.76-13.45,4.33-20.42.28-3.49,2.85-3.08,5.17-3.09,19.82,0,39.65,0,59.48-.1q65.22-.24,130.44-.54c6.92,0,6.14-.08,5.27,6.83a245.66,245.66,0,0,1-4.74,24.75c-1.86,8-1.85,16.49-5.2,24.22a14.93,14.93,0,0,0-1,6.36c.23,5.21-2.46,6.63-7.12,6.51-7-.17-14-.05-21,0-23.16,0-46.32.11-69.48,0-3.14,0-4,.9-5.24,4.07-2.74,7-1.89,14.43-4.23,21.39-1.06,3.18,2.34,2.5,4,2.51,13.82.1,27.65.07,41.48.07s27.66.08,41.49-.07c3.87,0,5.14,1.3,4.3,5.08-1.9,8.52-4.11,17-5.33,25.62-1.09,7.7-3.39,15.14-4.26,22.84-.6,5.3-3.17,10.08-3.69,15.43-.25,2.63-3,2-5,2-27.32,0-54.65.26-82,0-5.57-.06-7.5,2.7-8.23,7-1,6-.7,12.23-3.6,18-1.39,2.77,1.06,3.26,3.27,3.27,7.83,0,15.66.15,23.49.14,23.49,0,47,0,70.48-.2,4.37,0,6.14,1.08,5.23,5.73-1.81,9.23-3.41,18.49-5.37,27.7-1.58,7.42-4.48,14.68-4.4,22.36,0,4.77-2.31,8.61-3.59,12.85-.65,2.13-2.64,2-4.59,2q-49-.08-98,0Z" transform="translate(1100.56 -85.84)"/>
  <path class="cls-1" d="M1699.82,448.08c-14.17,0-28.33-.15-42.49.08-4.21.07-5.76-1.31-5.41-5.45.31-3.64.18-7.31.38-11,1-17.17-14.74-22.5-27.4-18-13.66,4.88-19.38,16-24.32,28.65a205.11,205.11,0,0,0-8.34,28.51c-3,12.74-5.67,25.63-7,38.61-1,9.81-3,19.93-.24,29.79,1.74,6.21,5.2,12.16,13.26,13.27,6.61.92,12.83-.44,19.14-1.49,2.72-.45,2.61-4,4.51-5.82,5.24-5.13,8.41-11.78,10.54-18.86A50.71,50.71,0,0,1,1635,520c.84-1.87,2.76-3.26,4.4-2.52,5.62,2.52,11.29-1.85,17.37.94,2.73,1.25,8.13-1.21,12.48-1.19,13,.07,26-.34,39,0,6.61.19,13.19-.24,19.78-.14,4,.06,5.11,1.27,4,5.46-4.62,17.25-11.84,33.31-22.46,47.61a106.14,106.14,0,0,1-26.13,24.28,164.57,164.57,0,0,1-32.62,17c-20.42,7.95-41.53,11.08-63,11.56a164.94,164.94,0,0,1-37.62-3.43c-21.4-4.53-40.66-14.08-54.41-31.8a75.65,75.65,0,0,1-14.47-31c-2.85-13.28-4.78-26.49-4.23-40,.38-9.23,2.36-18.39,3.26-27.61,1.21-12.44,5.3-24.23,8.22-36.24,2-8.18,6.69-15.73,10.41-23.45a144.1,144.1,0,0,1,55.3-61.52c13.09-8,27.63-13.31,42.54-18,24.55-7.77,49.36-6.16,74.15-5.42,11.44.35,22.78,3.92,33.79,8.33,14.46,5.79,26.46,14.4,35.06,27.07,3.9,5.75,7.42,12.18,7.18,20.17-.1,3.43,1.27,7.62,2.18,11.4,2.7,11.22-.91,22.18-1,33.26,0,3-2.59,2.85-4.85,2.84-14.49,0-29,0-43.47,0Z" transform="translate(1100.56 -85.84)"/>
  <path class="cls-1" d="M643.08,840.41c-.66,0-1.33,0-2,0-2.66-.11-5.82.63-7.85-.56-3.34-2,1-4.31.73-6.84-.93-7.77,3-14.84,3.81-22.47.49-4.72,2.78-9.33,2.79-14.4,0-2.8,2.81-4.75,5.07-4.67,9.72.36,19.54.4,28.66,4.77,3.64,1.74,5.11,4.83,5.56,8.24,2,14.89-6.51,28.42-21.37,33.17A53.22,53.22,0,0,1,643.08,840.41Z" transform="translate(1100.56 -85.84)"/>
</svg>
