<svg id="Layer_1" data-name="Layer 1" xmlns="http://www.w3.org/2000/svg" viewBox="0 0 850 168">
  <defs>
    <style>
      .cls-1 {
        fill: #fff;
      }
    </style>
  </defs>
  <title>logo</title>
  <path class="cls-1" d="M712,64c7.57,2.14,9.75,7.49,9.35,14.83-.35,6.28-.07,12.59-.07,19.43,14.35-4.31,28.53-2.43,42.59-2.53,8.17-.06,11.43,3.84,11.24,11.88-.16,7.15-3.53,10.74-10.8,10.9-8.5.2-17,0-25.49.07-11.5.07-17.52,6.15-17.54,17.66,0,11.83,0,23.66,0,35.49.07,18.34,13.21,31.4,31.57,31.44,7.33,0,14.67-.18,22,.09,9.58.34,13.71,6.2,11.37,15.48-1.06,4.23-3.77,7.09-7.94,7.13-12,.14-24.15,1.06-35.89-.71-25.64-3.88-43.85-25.76-44.06-51.71-.27-32.15,0-64.31-.14-96.46,0-7.15,3.25-11.15,9.81-13Z" transform="translate(-40 -63.95)"/>
  <path class="cls-1" d="M890,112c-2.37,5-6.51,6.75-11.79,6.59-3.33-.1-6.66-.07-10,0-18.51.31-31.72,13.5-31.82,32-.11,21.14,0,42.28,0,63.43,0,9.05-3.75,12.54-12.5,12.15-6.68-.3-10.27-3.52-10.34-10.86-.19-22.8-.84-45.65.27-68.4,1.45-29.54,22.73-49.63,52.31-51.18,4.15-.22,8.32,0,12.48-.12,5.08-.1,9.07,1.69,11.43,6.41Z" transform="translate(-40 -63.95)"/>
  <path class="cls-1" d="M40,148c5.64-9.58,11.52-19,16.81-28.81,2.14-4,4.6-5.24,9-5.06,8.77.35,17.57.1,26.79.1v68.56c-10.16,0-20.43.12-30.69-.15-1.3,0-2.9-1.89-3.75-3.28C52,169.24,46,159.08,40,149Z" transform="translate(-40 -63.95)"/>
  <path class="cls-1" d="M186,64c5.85,10.24,11.6,20.53,17.6,30.69,1.52,2.58,1.75,4.54.12,7.21-4.91,8.08-9.53,16.35-14.58,25.11L129.76,92.85C135.3,83,140.65,73.47,146,64Z" transform="translate(-40 -63.95)"/>
  <path class="cls-1" d="M146,232l-16.34-28.36,59.49-34.17c5.34,9.29,10.62,18.27,15.6,27.41.56,1-.28,3.16-1,4.46C197.89,211.56,191.93,221.74,186,232Z" transform="translate(-40 -63.95)"/>
  <path class="cls-1" d="M358.46,169.93A30.26,30.26,0,0,0,388,203.12c4.82.09,9.68-.16,14.47.3,7,.67,10,4.86,9.52,12.58-.4,6.53-3.88,10-10.58,10.06-7,0-14.08.46-20.94-.54-26.24-3.83-45.21-26.17-45.34-52.8q-.11-19.25,0-38.47c.1-21.24,15.33-37.59,36.61-38.43,14.8-.58,29.65-.58,44.44.06,19.56.85,35,18,35,38S435.92,171.13,416.42,172c-14.62.68-29.29.38-43.94.13C367.91,172.07,363.35,170.74,358.46,169.93Zm34.86-20.5c6.16,0,12.33.07,18.49,0,9.8-.14,16.45-6.52,16.42-15.62,0-8.76-6.68-15.13-16.28-15.23q-18.74-.21-37.48,0c-9.42.11-16.28,6.73-16.32,15.34s6.84,15.28,16.18,15.5C380.66,149.54,387,149.42,393.32,149.43Z" transform="translate(-40 -63.95)"/>
  <path class="cls-1" d="M552.58,153c2.41-16.32-10-32.5-26.79-34.13-4.79-.47-9.64-.25-14.47-.34-8.28-.16-12.06-3.62-12.21-11.17-.15-7.78,3.33-11.28,11.55-11.79,19-1.17,36.5,2,50.27,16.76,9.78,10.45,15.14,22.62,15,37-.09,11,.45,22.09-1,32.9-3.32,24.17-25.93,43.4-50.39,43.89-8.66.18-17.32.07-26,0-21-.09-37.87-16.06-38.59-36.6-.76-21.31,14.83-38.86,36.25-39.89,13.3-.64,26.66-.46,40,0C541.67,149.84,547.12,151.82,552.58,153Zm-35.8,19.42h-18c-.34,0-.67,0-1,0-8.66.5-15,7.11-14.91,15.6a15.09,15.09,0,0,0,15.31,15.08q12.73.15,25.46,0c9.43-.11,17-4.08,22.7-11.56,4.72-6.17,3.11-13.79-4-17.27a21.09,21.09,0,0,0-8.16-1.78C528.44,172.23,522.61,172.41,516.78,172.41Z" transform="translate(-40 -63.95)"/>
  <path class="cls-1" d="M647.81,95.55c7.65,0,15.32-.18,23,0,9.73.29,14.29,7.14,11.07,16.41-1.84,5.31-6.24,6.49-11.21,6.5q-19.23,0-38.46,0c-14.62,0-19.95,5.29-20,19.75,0,11.15-.05,22.31,0,33.47.1,18.27,13.31,31.34,31.64,31.38,9,0,18-.19,27,.1,9.35.3,13.32,5.86,11.35,15.09-.9,4.24-3.47,7.33-7.63,7.44-13.3.36-27,2.08-39.87-.2-28-4.94-43.85-26-44.91-47.38a401.17,401.17,0,0,1,.3-50.37c1.31-17.25,16.46-30.79,33.76-31.94,8-.52,16-.09,24-.09Z" transform="translate(-40 -63.95)"/>
  <path class="cls-1" d="M250.15,180.56c0-11.16-.23-22.33,0-33.48.69-27.14,23.17-50,50.4-51.29a147.56,147.56,0,0,1,17.47.08c6.09.43,8.95,4.29,9,11s-2.76,10.63-8.74,11.3a117.73,117.73,0,0,1-12.47.31c-19.44.16-32.68,13.26-32.77,32.63-.08,21.16,0,42.32,0,63.47,0,8.13-3.63,11.59-11.63,11.5-7.33-.09-11.12-3.65-11.21-11.06C250.05,203.56,250.15,192.06,250.15,180.56Z" transform="translate(-40 -63.95)"/>
  <path class="cls-1" d="M124.46,125.44l39.39,22.67-39.39,22.8Z" transform="translate(-40 -63.95)"/>
</svg>
