<svg xmlns="http://www.w3.org/2000/svg" viewBox="0 0 34 34"><defs><style>.cls-1{fill:#fff;}</style></defs><title>twitter</title><g id="Layer_2" data-name="Layer 2"><g id="Layer_1-2" data-name="Layer 1"><path class="cls-1" d="M17,0A17,17,0,1,0,34,17,17,17,0,0,0,17,0Zm7.9,12.85c-.09,10.32-10.34,14-16.94,9.76A7.74,7.74,0,0,0,13.69,21a3.87,3.87,0,0,1-3.6-2.67,3.83,3.83,0,0,0,1.69-.11,4,4,0,0,1-3-3.83,3.34,3.34,0,0,0,1.73.47C9,13.72,8.22,12.18,9.24,9.73a11.09,11.09,0,0,0,8,4,3.88,3.88,0,0,1,6.62-3.51,8.91,8.91,0,0,0,2.44-.91,4.3,4.3,0,0,1-1.65,2.12,7.8,7.8,0,0,0,2.18-.6A9.7,9.7,0,0,1,24.9,12.85Z"/></g></g></svg>